<?xml version="1.0" encoding="utf-8" standalone="no"?>
<!DOCTYPE svg PUBLIC "-//W3C//DTD SVG 1.1//EN"
  "http://www.w3.org/Graphics/SVG/1.1/DTD/svg11.dtd">
<svg xmlns:xlink="http://www.w3.org/1999/xlink" width="259.2pt" height="180pt" viewBox="0 0 259.2 180" xmlns="http://www.w3.org/2000/svg" version="1.1">
 <metadata>
  <rdf:RDF xmlns:dc="http://purl.org/dc/elements/1.1/" xmlns:cc="http://creativecommons.org/ns#" xmlns:rdf="http://www.w3.org/1999/02/22-rdf-syntax-ns#">
   <cc:Work>
    <dc:type rdf:resource="http://purl.org/dc/dcmitype/StillImage"/>
    <dc:date>2023-03-13T10:20:12.264151</dc:date>
    <dc:format>image/svg+xml</dc:format>
    <dc:creator>
     <cc:Agent>
      <dc:title>Matplotlib v3.5.3, https://matplotlib.org/</dc:title>
     </cc:Agent>
    </dc:creator>
   </cc:Work>
  </rdf:RDF>
 </metadata>
 <defs>
  <style type="text/css">*{stroke-linejoin: round; stroke-linecap: butt}</style>
 </defs>
 <g id="figure_1">
  <g id="patch_1">
   <path d="M 0 180 
L 259.2 180 
L 259.2 0 
L 0 0 
z
" style="fill: #ffffff"/>
  </g>
  <g id="axes_1">
   <g id="patch_2">
    <path d="M 32.4 160.2 
L 233.28 160.2 
L 233.28 21.6 
L 32.4 21.6 
z
" style="fill: #ffffff"/>
   </g>
   <g id="matplotlib.axis_1">
    <g id="xtick_1">
     <g id="line2d_1">
      <path d="M 67.059123 160.2 
L 67.059123 21.6 
" clip-path="url(#p72fc344b32)" style="fill: none; stroke: #b0b0b0; stroke-width: 0.8; stroke-linecap: square"/>
     </g>
     <g id="line2d_2">
      <defs>
       <path id="m9e953c11ee" d="M 0 0 
L 0 3.5 
" style="stroke: #000000; stroke-width: 0.8"/>
      </defs>
      <g>
       <use xlink:href="#m9e953c11ee" x="67.059123" y="160.2" style="stroke: #000000; stroke-width: 0.8"/>
      </g>
     </g>
     <g id="text_1">
      <text style="font: 10px 'Times New Roman'; text-anchor: middle" x="67.059123" y="174.14375" transform="rotate(-0, 67.059123, 174.14375)">200</text>
     </g>
    </g>
    <g id="xtick_2">
     <g id="line2d_3">
      <path d="M 122.755448 160.2 
L 122.755448 21.6 
" clip-path="url(#p72fc344b32)" style="fill: none; stroke: #b0b0b0; stroke-width: 0.8; stroke-linecap: square"/>
     </g>
     <g id="line2d_4">
      <g>
       <use xlink:href="#m9e953c11ee" x="122.755448" y="160.2" style="stroke: #000000; stroke-width: 0.8"/>
      </g>
     </g>
     <g id="text_2">
      <text style="font: 10px 'Times New Roman'; text-anchor: middle" x="122.755448" y="174.14375" transform="rotate(-0, 122.755448, 174.14375)">400</text>
     </g>
    </g>
    <g id="xtick_3">
     <g id="line2d_5">
      <path d="M 178.451774 160.2 
L 178.451774 21.6 
" clip-path="url(#p72fc344b32)" style="fill: none; stroke: #b0b0b0; stroke-width: 0.8; stroke-linecap: square"/>
     </g>
     <g id="line2d_6">
      <g>
       <use xlink:href="#m9e953c11ee" x="178.451774" y="160.2" style="stroke: #000000; stroke-width: 0.8"/>
      </g>
     </g>
     <g id="text_3">
      <text style="font: 10px 'Times New Roman'; text-anchor: middle" x="178.451774" y="174.14375" transform="rotate(-0, 178.451774, 174.14375)">600</text>
     </g>
    </g>
    <g id="text_4">
     <text style="font: 10px 'Times New Roman'; text-anchor: middle" x="132.84" y="187.226562" transform="rotate(-0, 132.84, 187.226562)">Ground Range [km]</text>
    </g>
   </g>
   <g id="matplotlib.axis_2">
    <g id="ytick_1">
     <g id="line2d_7">
      <path d="M 32.4 155.118415 
L 233.28 155.118415 
" clip-path="url(#p72fc344b32)" style="fill: none; stroke: #b0b0b0; stroke-width: 0.8; stroke-linecap: square"/>
     </g>
     <g id="line2d_8">
      <defs>
       <path id="m349e630692" d="M 0 0 
L -3.5 0 
" style="stroke: #000000; stroke-width: 0.8"/>
      </defs>
      <g>
       <use xlink:href="#m349e630692" x="32.4" y="155.118415" style="stroke: #000000; stroke-width: 0.8"/>
      </g>
     </g>
     <g id="text_5">
      <text style="font: 10px 'Times New Roman'; text-anchor: end" x="25.4" y="158.59029" transform="rotate(-0, 25.4, 158.59029)">0.0</text>
     </g>
    </g>
    <g id="ytick_2">
     <g id="line2d_9">
      <path d="M 32.4 129.628046 
L 233.28 129.628046 
" clip-path="url(#p72fc344b32)" style="fill: none; stroke: #b0b0b0; stroke-width: 0.8; stroke-linecap: square"/>
     </g>
     <g id="line2d_10">
      <g>
       <use xlink:href="#m349e630692" x="32.4" y="129.628046" style="stroke: #000000; stroke-width: 0.8"/>
      </g>
     </g>
     <g id="text_6">
      <text style="font: 10px 'Times New Roman'; text-anchor: end" x="25.4" y="133.099921" transform="rotate(-0, 25.4, 133.099921)">0.2</text>
     </g>
    </g>
    <g id="ytick_3">
     <g id="line2d_11">
      <path d="M 32.4 104.137678 
L 233.28 104.137678 
" clip-path="url(#p72fc344b32)" style="fill: none; stroke: #b0b0b0; stroke-width: 0.8; stroke-linecap: square"/>
     </g>
     <g id="line2d_12">
      <g>
       <use xlink:href="#m349e630692" x="32.4" y="104.137678" style="stroke: #000000; stroke-width: 0.8"/>
      </g>
     </g>
     <g id="text_7">
      <text style="font: 10px 'Times New Roman'; text-anchor: end" x="25.4" y="107.609553" transform="rotate(-0, 25.4, 107.609553)">0.4</text>
     </g>
    </g>
    <g id="ytick_4">
     <g id="line2d_13">
      <path d="M 32.4 78.64731 
L 233.28 78.64731 
" clip-path="url(#p72fc344b32)" style="fill: none; stroke: #b0b0b0; stroke-width: 0.8; stroke-linecap: square"/>
     </g>
     <g id="line2d_14">
      <g>
       <use xlink:href="#m349e630692" x="32.4" y="78.64731" style="stroke: #000000; stroke-width: 0.8"/>
      </g>
     </g>
     <g id="text_8">
      <text style="font: 10px 'Times New Roman'; text-anchor: end" x="25.4" y="82.119185" transform="rotate(-0, 25.4, 82.119185)">0.6</text>
     </g>
    </g>
    <g id="ytick_5">
     <g id="line2d_15">
      <path d="M 32.4 53.156942 
L 233.28 53.156942 
" clip-path="url(#p72fc344b32)" style="fill: none; stroke: #b0b0b0; stroke-width: 0.8; stroke-linecap: square"/>
     </g>
     <g id="line2d_16">
      <g>
       <use xlink:href="#m349e630692" x="32.4" y="53.156942" style="stroke: #000000; stroke-width: 0.8"/>
      </g>
     </g>
     <g id="text_9">
      <text style="font: 10px 'Times New Roman'; text-anchor: end" x="25.4" y="56.628817" transform="rotate(-0, 25.4, 56.628817)">0.8</text>
     </g>
    </g>
    <g id="ytick_6">
     <g id="line2d_17">
      <path d="M 32.4 27.666574 
L 233.28 27.666574 
" clip-path="url(#p72fc344b32)" style="fill: none; stroke: #b0b0b0; stroke-width: 0.8; stroke-linecap: square"/>
     </g>
     <g id="line2d_18">
      <g>
       <use xlink:href="#m349e630692" x="32.4" y="27.666574" style="stroke: #000000; stroke-width: 0.8"/>
      </g>
     </g>
     <g id="text_10">
      <text style="font: 10px 'Times New Roman'; text-anchor: end" x="25.4" y="31.138449" transform="rotate(-0, 25.4, 31.138449)">1.0</text>
     </g>
    </g>
    <g id="text_11">
     <text style="font: 10px 'Times New Roman'; text-anchor: middle" x="6.742187" y="90.9" transform="rotate(-90, 6.742187, 90.9)">Probability of Detection</text>
    </g>
   </g>
   <g id="line2d_19">
    <path d="M 41.530909 153.9 
L 41.729091 153.269793 
L 41.927395 152.403475 
L 42.125821 151.246816 
L 42.324371 149.743455 
L 42.523044 147.837757 
L 42.721842 145.478238 
L 42.920766 142.621385 
L 43.119817 139.235607 
L 43.318995 135.304963 
L 43.518302 130.832295 
L 43.717738 125.841377 
L 43.917304 120.377722 
L 44.117001 114.507844 
L 44.316831 108.316873 
L 44.516793 101.904653 
L 44.716888 95.380609 
L 44.917119 88.857844 
L 45.117484 82.447014 
L 45.317987 76.250561 
L 45.518626 70.357824 
L 45.719404 64.841413 
L 45.92032 59.755071 
L 46.121377 55.133065 
L 46.322575 50.990958 
L 46.523914 47.327514 
L 46.725396 44.127386 
L 46.927022 41.364231 
L 47.128792 39.003912 
L 47.330708 37.007526 
L 47.53277 35.334056 
L 47.734979 33.942529 
L 47.937337 32.793665 
L 48.139844 31.851005 
L 48.3425 31.081606 
L 48.545308 30.456357 
L 48.748268 29.950016 
L 48.95138 29.541053 
L 49.154647 29.211349 
L 49.358068 28.945844 
L 49.561644 28.732143 
L 49.765378 28.560131 
L 49.969269 28.421614 
L 50.173318 28.309997 
L 50.377527 28.219995 
L 50.581896 28.147394 
L 50.786427 28.088843 
L 50.99112 28.041693 
L 51.195976 28.003852 
L 51.400997 27.973679 
L 51.606183 27.949896 
L 51.811535 27.931518 
L 52.017054 27.917801 
L 52.222741 27.9082 
L 52.428598 27.902341 
L 52.634625 27.9 
L 52.840822 27.901091 
L 53.047192 27.905663 
L 53.253735 27.913902 
L 53.460452 27.926141 
L 53.667344 27.942883 
L 53.874412 27.964823 
L 54.081657 27.992892 
L 54.28908 28.028309 
L 54.496682 28.072649 
L 54.704464 28.127929 
L 54.912427 28.196724 
L 55.120573 28.282306 
L 55.328901 28.388814 
L 55.537414 28.521472 
L 55.746112 28.686838 
L 55.954996 28.893109 
L 56.164067 29.150471 
L 56.373326 29.471484 
L 56.582775 29.871507 
L 56.792414 30.369129 
L 57.002244 30.986575 
L 57.212267 31.75004 
L 57.422483 32.68989 
L 57.632894 33.840636 
L 57.8435 35.240595 
L 58.054303 36.931142 
L 58.265303 38.955455 
L 58.476502 41.356687 
L 58.687901 44.175551 
L 58.899501 47.447376 
L 59.111303 51.198756 
L 59.323308 55.444044 
L 59.535517 60.18202 
L 59.747931 65.393099 
L 59.960552 71.037528 
L 60.173379 77.054899 
L 60.386416 83.365268 
L 60.599661 89.871958 
L 60.813118 96.465931 
L 61.026786 103.031412 
L 61.240667 109.452255 
L 61.454762 115.618436 
L 61.669072 121.432049 
L 61.883599 126.812213 
L 62.098343 131.6985 
L 62.313305 136.052634 
L 62.528487 139.858483 
L 62.743889 143.120497 
L 62.959513 145.860939 
L 63.175361 148.116304 
L 63.391432 149.933349 
L 63.607729 151.365111 
L 63.824252 152.46724 
L 64.041003 153.294844 
L 64.257983 153.9 
" clip-path="url(#p72fc344b32)" style="fill: none; stroke: #1f77b4; stroke-width: 1.5; stroke-linecap: square"/>
   </g>
   <g id="line2d_20">
    <path d="M 44.839071 91.392494 
L 60.648981 91.392494 
" clip-path="url(#p72fc344b32)" style="fill: none; stroke: #1f77b4; stroke-width: 1.5; stroke-linecap: square"/>
   </g>
   <g id="line2d_21">
    <path d="M 94.998648 70.95627 
L 95.144496 68.369577 
L 95.29048 65.879651 
L 95.436599 63.490515 
L 95.582854 61.205163 
L 95.729246 59.025599 
L 95.875776 56.952897 
L 96.022442 54.987264 
L 96.169246 53.128112 
L 96.316188 51.374141 
L 96.463269 49.723416 
L 96.610488 48.173456 
L 96.757846 46.721314 
L 96.905344 45.363656 
L 97.052982 44.096844 
L 97.200759 42.917001 
L 97.348678 41.820084 
L 97.496737 40.801943 
L 97.644937 39.858377 
L 97.793279 38.98518 
L 97.941763 38.178185 
L 98.09039 37.4333 
L 98.239159 36.746538 
L 98.388071 36.114038 
L 98.537127 35.53209 
L 98.686326 34.997144 
L 98.83567 34.505824 
L 98.985158 34.054932 
L 99.134791 33.641455 
L 99.28457 33.262563 
L 99.434494 32.915607 
L 99.584564 32.598119 
L 99.734781 32.307804 
L 99.885144 32.042538 
L 100.035655 31.800354 
L 100.186313 31.579445 
L 100.337119 31.378146 
L 100.488073 31.194935 
L 100.639177 31.028417 
L 100.790429 30.877323 
L 100.941831 30.740497 
L 101.093382 30.616893 
L 101.245084 30.505565 
L 101.396936 30.405662 
L 101.54894 30.31642 
L 101.701095 30.237159 
L 101.853401 30.167276 
L 102.00586 30.106239 
L 102.158472 30.053585 
L 102.311236 30.008916 
L 102.464154 29.971894 
L 102.617226 29.94224 
L 102.770451 29.91973 
L 102.923831 29.904194 
L 103.077367 29.895513 
L 103.231057 29.893622 
L 103.384904 29.898504 
L 103.538906 29.910192 
L 103.693065 29.928773 
L 103.847381 29.954381 
L 104.001854 29.987206 
L 104.156485 30.02749 
L 104.311275 30.075531 
L 104.466223 30.131686 
L 104.62133 30.196375 
L 104.776596 30.270079 
L 104.932022 30.353351 
L 105.087608 30.446815 
L 105.243355 30.551173 
L 105.399263 30.667209 
L 105.555333 30.795798 
L 105.711564 30.937906 
L 105.867958 31.094601 
L 106.024514 31.267059 
L 106.181233 31.456569 
L 106.338117 31.664543 
L 106.495164 31.89252 
L 106.652375 32.142177 
L 106.809751 32.415332 
L 106.967293 32.713956 
L 107.125 33.040172 
L 107.282873 33.39627 
L 107.440913 33.784702 
L 107.59912 34.208092 
L 107.757494 34.669235 
L 107.916037 35.171098 
L 108.074747 35.716816 
L 108.233626 36.309686 
L 108.392674 36.953162 
L 108.551892 37.650839 
L 108.71128 38.406439 
L 108.870838 39.22379 
L 109.030567 40.106798 
L 109.190468 41.059421 
L 109.35054 42.085627 
L 109.510784 43.189355 
L 109.671201 44.37447 
L 109.831792 45.644702 
L 109.992555 47.003595 
L 110.153493 48.454438 
L 110.314606 50.000199 
L 110.475893 51.643454 
L 110.637355 53.386312 
L 110.798994 55.230339 
L 110.960808 57.176485 
L 111.1228 59.225012 
L 111.284968 61.375424 
L 111.447315 63.626405 
L 111.609839 65.975769 
L 111.772542 68.420408 
L 111.935424 70.95627 
" clip-path="url(#p72fc344b32)" style="fill: none; stroke: #ff7f0e; stroke-width: 1.5; stroke-linecap: square"/>
   </g>
   <g id="line2d_22">
    <path d="M 94.998648 70.95627 
L 111.935424 70.95627 
" clip-path="url(#p72fc344b32)" style="fill: none; stroke: #ff7f0e; stroke-width: 1.5; stroke-linecap: square"/>
   </g>
   <g id="line2d_23">
    <path d="M 102.316343 81.675663 
L 102.476072 78.779916 
L 102.63597 75.959074 
L 102.796036 73.22103 
L 102.95627 70.572585 
L 103.116674 68.019434 
L 103.277247 65.566166 
L 103.43799 63.216291 
L 103.598904 60.972282 
L 103.759989 58.835623 
L 103.921245 56.806881 
L 104.082673 54.885778 
L 104.244273 53.071274 
L 104.406046 51.361651 
L 104.567993 49.754601 
L 104.730113 48.247312 
L 104.892407 46.836556 
L 105.054876 45.518765 
L 105.217521 44.290113 
L 105.380341 43.146581 
L 105.543337 42.084028 
L 105.706509 41.098246 
L 105.869859 40.185009 
L 106.033386 39.340123 
L 106.197091 38.55946 
L 106.360975 37.838991 
L 106.525037 37.174813 
L 106.689279 36.56317 
L 106.853701 36.000464 
L 107.018304 35.483273 
L 107.183087 35.008356 
L 107.348052 34.572655 
L 107.513198 34.173299 
L 107.678527 33.807604 
L 107.844039 33.473066 
L 108.009734 33.167362 
L 108.175613 32.88834 
L 108.341676 32.634015 
L 108.507924 32.402561 
L 108.674358 32.192305 
L 108.840977 32.001718 
L 109.007783 31.829406 
L 109.174776 31.674106 
L 109.341956 31.534676 
L 109.509323 31.41009 
L 109.67688 31.299429 
L 109.844625 31.201877 
L 110.012559 31.116714 
L 110.180683 31.043313 
L 110.348998 30.981131 
L 110.517504 30.929711 
L 110.686201 30.888671 
L 110.85509 30.857709 
L 111.024172 30.836595 
L 111.193446 30.82517 
L 111.362914 30.823347 
L 111.532576 30.831109 
L 111.702433 30.848506 
L 111.872485 30.87566 
L 112.042733 30.912764 
L 112.213176 30.960081 
L 112.383816 31.01795 
L 112.554654 31.086786 
L 112.725689 31.167082 
L 112.896923 31.259416 
L 113.068355 31.364453 
L 113.239987 31.482948 
L 113.411819 31.615755 
L 113.583851 31.763828 
L 113.756084 31.92823 
L 113.928519 32.110138 
L 114.101156 32.31085 
L 114.273995 32.531792 
L 114.447038 32.774521 
L 114.620284 33.040739 
L 114.793735 33.332292 
L 114.967391 33.651183 
L 115.141251 33.999573 
L 115.315318 34.379787 
L 115.489592 34.794318 
L 115.664072 35.245831 
L 115.838761 35.737162 
L 116.013657 36.271317 
L 116.188762 36.851468 
L 116.364077 37.480948 
L 116.539601 38.163238 
L 116.715336 38.901955 
L 116.891282 39.700837 
L 117.06744 40.563712 
L 117.24381 41.494478 
L 117.420393 42.497067 
L 117.597189 43.575405 
L 117.774199 44.733368 
L 117.951423 45.974732 
L 118.128863 47.303116 
L 118.306519 48.721922 
L 118.48439 50.234265 
L 118.662479 51.842905 
L 118.840785 53.550172 
L 119.019309 55.357889 
L 119.198052 57.267297 
L 119.377015 59.27898 
L 119.556197 61.39279 
L 119.735599 63.607781 
L 119.915223 65.922148 
L 120.095068 68.333174 
L 120.275136 70.837197 
L 120.455426 73.429573 
L 120.63594 76.104676 
L 120.816678 78.855894 
L 120.997641 81.675663 
" clip-path="url(#p72fc344b32)" style="fill: none; stroke: #2ca02c; stroke-width: 1.5; stroke-linecap: square"/>
   </g>
   <g id="line2d_24">
    <path d="M 102.316343 81.675663 
L 120.997641 81.675663 
" clip-path="url(#p72fc344b32)" style="fill: none; stroke: #2ca02c; stroke-width: 1.5; stroke-linecap: square"/>
   </g>
   <g id="line2d_25">
    <path d="M 125.361779 108.778003 
L 125.566726 105.819129 
L 125.771964 102.843074 
L 125.977493 99.862368 
L 126.183315 96.889304 
L 126.38943 93.93578 
L 126.595839 91.013155 
L 126.802543 88.132125 
L 127.009544 85.302613 
L 127.216841 82.53368 
L 127.424435 79.833461 
L 127.632329 77.209118 
L 127.840522 74.666816 
L 128.049015 72.211719 
L 128.25781 69.847998 
L 128.466907 67.578863 
L 128.676307 65.406603 
L 128.886012 63.332641 
L 129.096022 61.357597 
L 129.306337 59.481354 
L 129.51696 57.703133 
L 129.72789 56.021572 
L 129.939129 54.434797 
L 130.150678 52.940504 
L 130.362538 51.536027 
L 130.574709 50.21841 
L 130.787193 48.984472 
L 130.999991 47.830867 
L 131.213103 46.754139 
L 131.426531 45.750771 
L 131.640275 44.817231 
L 131.854336 43.950004 
L 132.068716 43.145631 
L 132.283415 42.400733 
L 132.498434 41.712035 
L 132.713775 41.076385 
L 132.929438 40.490765 
L 133.145425 39.952309 
L 133.361735 39.458303 
L 133.578372 39.006197 
L 133.795334 38.593606 
L 134.012623 38.218309 
L 134.230241 37.878254 
L 134.448189 37.571553 
L 134.666466 37.296479 
L 134.885075 37.051468 
L 135.104016 36.83511 
L 135.323291 36.64615 
L 135.5429 36.483483 
L 135.762844 36.34615 
L 135.983125 36.233333 
L 136.203744 36.144357 
L 136.424701 36.078681 
L 136.645997 36.035901 
L 136.867634 36.015744 
L 137.089613 36.01807 
L 137.311935 36.042869 
L 137.534601 36.09026 
L 137.757611 36.160494 
L 137.980967 36.253951 
L 138.204671 36.371144 
L 138.428722 36.512717 
L 138.653123 36.679451 
L 138.877874 36.872263 
L 139.102976 37.092208 
L 139.328431 37.340486 
L 139.554239 37.618435 
L 139.780402 37.927544 
L 140.006921 38.269448 
L 140.233796 38.64593 
L 140.461029 39.058923 
L 140.688622 39.510511 
L 140.916574 40.002926 
L 141.144888 40.538542 
L 141.373565 41.119878 
L 141.602605 41.749583 
L 141.832009 42.430434 
L 142.06178 43.165317 
L 142.291917 43.957219 
L 142.522423 44.809207 
L 142.753297 45.724403 
L 142.984543 46.705963 
L 143.216159 47.757043 
L 143.448149 48.880766 
L 143.680512 50.080184 
L 143.913251 51.358229 
L 144.146366 52.717674 
L 144.379858 54.161071 
L 144.613729 55.690702 
L 144.847979 57.308517 
L 145.082611 59.016075 
L 145.317625 60.814479 
L 145.553022 62.704315 
L 145.788804 64.685589 
L 146.024971 66.757669 
L 146.261526 68.91923 
L 146.498469 71.168207 
L 146.735801 73.50175 
L 146.973524 75.916195 
L 147.211639 78.407044 
L 147.450147 80.968955 
L 147.68905 83.595751 
L 147.928348 86.280438 
L 148.168043 89.015247 
L 148.408136 91.791681 
L 148.648628 94.60059 
L 148.889521 97.432255 
L 149.130817 100.276483 
L 149.372515 103.122725 
L 149.614618 105.960195 
L 149.857126 108.778003 
" clip-path="url(#p72fc344b32)" style="fill: none; stroke: #d62728; stroke-width: 1.5; stroke-linecap: square"/>
   </g>
   <g id="line2d_26">
    <path d="M 126.568881 91.392494 
L 148.373783 91.392494 
" clip-path="url(#p72fc344b32)" style="fill: none; stroke: #d62728; stroke-width: 1.5; stroke-linecap: square"/>
   </g>
   <g id="line2d_27">
    <path d="M 183.167378 135.355914 
L 183.49561 133.716631 
L 183.824552 132.018072 
L 184.154205 130.264591 
L 184.484573 128.460948 
L 184.815657 126.612252 
L 185.147461 124.723912 
L 185.479987 122.801576 
L 185.813237 120.851075 
L 186.147215 118.878361 
L 186.481923 116.889447 
L 186.817364 114.890352 
L 187.15354 112.887039 
L 187.490454 110.885369 
L 187.828108 108.89105 
L 188.166506 106.909591 
L 188.505651 104.946269 
L 188.845544 103.006088 
L 189.186189 101.09376 
L 189.527588 99.213675 
L 189.869744 97.36989 
L 190.212661 95.56612 
L 190.55634 93.805723 
L 190.900785 92.091712 
L 191.245998 90.426749 
L 191.591982 88.813157 
L 191.93874 87.252929 
L 192.286275 85.747744 
L 192.63459 84.298985 
L 192.983688 82.907752 
L 193.333571 81.574888 
L 193.684242 80.300997 
L 194.035705 79.086467 
L 194.387962 77.931491 
L 194.741016 76.836091 
L 195.094871 75.800138 
L 195.449528 74.823373 
L 195.804992 73.90543 
L 196.161265 73.045852 
L 196.518349 72.244112 
L 196.876249 71.49963 
L 197.234967 70.811787 
L 197.594506 70.179942 
L 197.954869 69.603446 
L 198.316059 69.081652 
L 198.67808 68.613926 
L 199.040934 68.199662 
L 199.404625 67.838282 
L 199.769155 67.529249 
L 200.134528 67.272075 
L 200.500747 67.066319 
L 200.867815 66.911599 
L 201.235736 66.80759 
L 201.604511 66.754028 
L 201.974146 66.750711 
L 202.344642 66.797499 
L 202.716003 66.894315 
L 203.088233 67.041142 
L 203.461334 67.238021 
L 203.835309 67.485048 
L 204.210163 67.78237 
L 204.585898 68.13018 
L 204.962518 68.528712 
L 205.340026 68.978234 
L 205.718425 69.479042 
L 206.097719 70.031447 
L 206.477911 70.635773 
L 206.859004 71.292342 
L 207.241002 72.001464 
L 207.623909 72.763427 
L 208.007727 73.578483 
L 208.39246 74.446836 
L 208.778111 75.368628 
L 209.164684 76.343923 
L 209.552183 77.372695 
L 209.940611 78.454812 
L 210.329972 79.590018 
L 210.720268 80.77792 
L 211.111504 82.017975 
L 211.503683 83.309467 
L 211.896808 84.651502 
L 212.290884 86.042987 
L 212.685913 87.482622 
L 213.0819 88.968886 
L 213.478848 90.500027 
L 213.876761 92.074058 
L 214.275642 93.688747 
L 214.675495 95.341614 
L 215.076324 97.029934 
L 215.478132 98.750735 
L 215.880924 100.500806 
L 216.284702 102.276704 
L 216.689471 104.074768 
L 217.095235 105.891132 
L 217.501996 107.721742 
L 217.90976 109.562384 
L 218.318529 111.408701 
L 218.728308 113.256228 
L 219.139101 115.100417 
L 219.550911 116.936672 
L 219.963742 118.760383 
L 220.377599 120.566962 
L 220.792484 122.351881 
L 221.208403 124.110705 
L 221.625358 125.839134 
L 222.043355 127.533034 
L 222.462396 129.188477 
L 222.882486 130.801767 
L 223.30363 132.369475 
L 223.72583 133.888464 
L 224.149091 135.355914 
" clip-path="url(#p72fc344b32)" style="fill: none; stroke: #9467bd; stroke-width: 1.5; stroke-linecap: square"/>
   </g>
   <g id="line2d_28">
    <path d="M 191.044402 91.392494 
L 213.705638 91.392494 
" clip-path="url(#p72fc344b32)" style="fill: none; stroke: #9467bd; stroke-width: 1.5; stroke-linecap: square"/>
   </g>
   <g id="line2d_29">
    <path d="M 67.231306 36.707503 
L 67.326453 36.044525 
L 67.421645 35.428503 
L 67.516883 34.856731 
L 67.612168 34.326569 
L 67.707499 33.835456 
L 67.802876 33.38092 
L 67.8983 32.960581 
L 67.99377 32.572162 
L 68.089287 32.213489 
L 68.184851 31.882495 
L 68.280462 31.577221 
L 68.376119 31.295816 
L 68.471824 31.036534 
L 68.567576 30.797735 
L 68.663375 30.577881 
L 68.759221 30.375534 
L 68.855115 30.18935 
L 68.951057 30.018078 
L 69.047046 29.860555 
L 69.143083 29.715699 
L 69.239168 29.582511 
L 69.3353 29.460064 
L 69.431481 29.347501 
L 69.52771 29.244033 
L 69.623988 29.148932 
L 69.720313 29.061528 
L 69.816688 28.981204 
L 69.91311 28.907395 
L 70.009582 28.839581 
L 70.106102 28.777286 
L 70.202671 28.720074 
L 70.29929 28.667547 
L 70.395957 28.619339 
L 70.492673 28.575118 
L 70.589439 28.53458 
L 70.686254 28.497448 
L 70.783119 28.46347 
L 70.880033 28.432417 
L 70.976997 28.404081 
L 71.074011 28.378274 
L 71.171075 28.354826 
L 71.268189 28.333583 
L 71.365353 28.314406 
L 71.462567 28.297171 
L 71.559832 28.281769 
L 71.657147 28.2681 
L 71.754513 28.256079 
L 71.851929 28.245629 
L 71.949396 28.236685 
L 72.046914 28.229191 
L 72.144483 28.2231 
L 72.242103 28.218376 
L 72.339774 28.214989 
L 72.437497 28.212918 
L 72.535271 28.212152 
L 72.633096 28.212685 
L 72.730973 28.214521 
L 72.828902 28.217672 
L 72.926883 28.222158 
L 73.024915 28.228007 
L 73.123 28.235256 
L 73.221137 28.24395 
L 73.319326 28.254145 
L 73.417567 28.265905 
L 73.515861 28.279305 
L 73.614208 28.294432 
L 73.712607 28.311382 
L 73.811059 28.330265 
L 73.909564 28.351206 
L 74.008122 28.374341 
L 74.106733 28.399823 
L 74.205398 28.427823 
L 74.304116 28.458529 
L 74.402887 28.492147 
L 74.501712 28.528908 
L 74.60059 28.569062 
L 74.699523 28.612886 
L 74.798509 28.660686 
L 74.897549 28.712793 
L 74.996644 28.769574 
L 75.095792 28.831428 
L 75.194995 28.898792 
L 75.294253 28.972146 
L 75.393565 29.052009 
L 75.492932 29.13895 
L 75.592353 29.233589 
L 75.69183 29.3366 
L 75.791362 29.448715 
L 75.890948 29.570728 
L 75.99059 29.703503 
L 76.090287 29.847971 
L 76.19004 30.005141 
L 76.289849 30.176102 
L 76.389713 30.362026 
L 76.489633 30.564176 
L 76.589609 30.783905 
L 76.689641 31.022664 
L 76.789729 31.282005 
L 76.889873 31.563582 
L 76.990074 31.869154 
L 77.090331 32.200588 
L 77.190645 32.559859 
L 77.291016 32.949051 
L 77.391443 33.370353 
L 77.491928 33.826058 
L 77.59247 34.318559 
L 77.693068 34.850345 
L 77.793724 35.423987 
L 77.894438 36.042136 
L 77.995209 36.707503 
" clip-path="url(#p72fc344b32)" style="fill: none; stroke: #8c564b; stroke-width: 1.5; stroke-linecap: square"/>
   </g>
   <g id="line2d_30">
    <path d="M 67.231306 36.707503 
L 77.995209 36.707503 
" clip-path="url(#p72fc344b32)" style="fill: none; stroke: #8c564b; stroke-width: 1.5; stroke-linecap: square"/>
   </g>
   <g id="line2d_31">
    <path d="M 80.46984 50.22114 
L 80.588784 48.635993 
L 80.707809 47.14396 
L 80.826917 45.742601 
L 80.946108 44.429122 
L 81.065381 43.200441 
L 81.184738 42.05324 
L 81.304177 40.984027 
L 81.4237 39.989185 
L 81.543306 39.065019 
L 81.662996 38.207798 
L 81.782769 37.413796 
L 81.902627 36.679322 
L 82.022569 36.000748 
L 82.142596 35.374537 
L 82.262707 34.797259 
L 82.382903 34.265609 
L 82.503184 33.776415 
L 82.623551 33.326656 
L 82.744003 32.913457 
L 82.86454 32.534102 
L 82.985164 32.186028 
L 83.105873 31.866831 
L 83.226669 31.574256 
L 83.347551 31.306203 
L 83.46852 31.060713 
L 83.589576 30.835969 
L 83.710719 30.630289 
L 83.831949 30.442115 
L 83.953266 30.270015 
L 84.074672 30.112666 
L 84.196165 29.968856 
L 84.317746 29.837473 
L 84.439416 29.717497 
L 84.561174 29.607998 
L 84.68302 29.508127 
L 84.804956 29.417108 
L 84.926981 29.334238 
L 85.049095 29.258878 
L 85.171298 29.190449 
L 85.293592 29.128428 
L 85.415975 29.07234 
L 85.538449 29.021761 
L 85.661012 28.976309 
L 85.783667 28.935643 
L 85.906412 28.89946 
L 86.029248 28.86749 
L 86.152176 28.839496 
L 86.275194 28.815275 
L 86.398305 28.794646 
L 86.521507 28.777462 
L 86.644801 28.763595 
L 86.768188 28.752947 
L 86.891667 28.74544 
L 87.015239 28.741019 
L 87.138903 28.739654 
L 87.262661 28.741334 
L 87.386512 28.746071 
L 87.510457 28.7539 
L 87.634495 28.764877 
L 87.758628 28.779081 
L 87.882854 28.796615 
L 88.007175 28.817607 
L 88.131591 28.842209 
L 88.256102 28.870602 
L 88.380707 28.902994 
L 88.505408 28.939625 
L 88.630205 28.980766 
L 88.755097 29.026725 
L 88.880085 29.077847 
L 89.005169 29.134516 
L 89.13035 29.197161 
L 89.255627 29.266261 
L 89.381001 29.342341 
L 89.506472 29.425986 
L 89.632041 29.51784 
L 89.757707 29.61861 
L 89.883471 29.729074 
L 90.009333 29.850087 
L 90.135292 29.982584 
L 90.261351 30.127587 
L 90.387508 30.286211 
L 90.513764 30.459673 
L 90.640119 30.649295 
L 90.766573 30.856513 
L 90.893127 31.08288 
L 91.01978 31.330078 
L 91.146534 31.599921 
L 91.273388 31.894357 
L 91.400342 32.21548 
L 91.527397 32.565529 
L 91.654553 32.94689 
L 91.781811 33.362104 
L 91.909169 33.81386 
L 92.036629 34.304996 
L 92.164191 34.838494 
L 92.291856 35.417474 
L 92.419622 36.045184 
L 92.547491 36.724986 
L 92.675463 37.460342 
L 92.803538 38.254789 
L 92.931716 39.111918 
L 93.059998 40.035347 
L 93.188384 41.028682 
L 93.316873 42.095483 
L 93.445467 43.239222 
L 93.574165 44.463238 
L 93.702968 45.770679 
L 93.831876 47.164459 
L 93.960889 48.647192 
L 94.090007 50.22114 
" clip-path="url(#p72fc344b32)" style="fill: none; stroke: #e377c2; stroke-width: 1.5; stroke-linecap: square"/>
   </g>
   <g id="line2d_32">
    <path d="M 80.46984 50.22114 
L 94.090007 50.22114 
" clip-path="url(#p72fc344b32)" style="fill: none; stroke: #e377c2; stroke-width: 1.5; stroke-linecap: square"/>
   </g>
   <g id="patch_3">
    <path d="M 32.4 160.2 
L 32.4 21.6 
" style="fill: none; stroke: #000000; stroke-width: 0.8; stroke-linejoin: miter; stroke-linecap: square"/>
   </g>
   <g id="patch_4">
    <path d="M 233.28 160.2 
L 233.28 21.6 
" style="fill: none; stroke: #000000; stroke-width: 0.8; stroke-linejoin: miter; stroke-linecap: square"/>
   </g>
   <g id="patch_5">
    <path d="M 32.4 160.2 
L 233.28 160.2 
" style="fill: none; stroke: #000000; stroke-width: 0.8; stroke-linejoin: miter; stroke-linecap: square"/>
   </g>
   <g id="patch_6">
    <path d="M 32.4 21.6 
L 233.28 21.6 
" style="fill: none; stroke: #000000; stroke-width: 0.8; stroke-linejoin: miter; stroke-linecap: square"/>
   </g>
   <g id="legend_1">
    <g id="patch_7">
     <path d="M 177.9768 141.886719 
L 248.3768 141.886719 
Q 250.3768 141.886719 250.3768 139.886719 
L 250.3768 41.913281 
Q 250.3768 39.913281 248.3768 39.913281 
L 177.9768 39.913281 
Q 175.9768 39.913281 175.9768 41.913281 
L 175.9768 139.886719 
Q 175.9768 141.886719 177.9768 141.886719 
z
" style="fill: #ffffff; opacity: 0.8; stroke: #cccccc; stroke-linejoin: miter"/>
    </g>
    <g id="line2d_33">
     <path d="M 179.9768 47.413281 
L 189.9768 47.413281 
L 199.9768 47.413281 
" style="fill: none; stroke: #1f77b4; stroke-width: 1.5; stroke-linecap: square"/>
    </g>
    <g id="text_12">
     <!-- $\eta_i=$17.9 -->
     <g transform="translate(207.9768 50.913281)">
      <text>
       <tspan style="font: oblique 10px 'DejaVu Sans'" x="0" y="-0.234375">η</tspan>
       <tspan style="font: oblique 7px 'DejaVu Sans'" x="6.337891" y="1.40625">i</tspan>
       <tspan style="font: 10px 'DejaVu Sans'" x="10.504395" y="-0.234375">=</tspan>
       <tspan style="font: 10px 'Times New Roman'" x="20.831543 25.831543 30.831543 33.331543" y="-0.234375">17.9</tspan>
      </text>
     </g>
    </g>
    <g id="line2d_34">
     <path d="M 179.9768 61.552344 
L 189.9768 61.552344 
L 199.9768 61.552344 
" style="fill: none; stroke: #ff7f0e; stroke-width: 1.5; stroke-linecap: square"/>
    </g>
    <g id="text_13">
     <!-- $\eta_i=$36.0 -->
     <g transform="translate(207.9768 65.052344)">
      <text>
       <tspan style="font: oblique 10px 'DejaVu Sans'" x="0" y="-0.234375">η</tspan>
       <tspan style="font: oblique 7px 'DejaVu Sans'" x="6.337891" y="1.40625">i</tspan>
       <tspan style="font: 10px 'DejaVu Sans'" x="10.504395" y="-0.234375">=</tspan>
       <tspan style="font: 10px 'Times New Roman'" x="20.831543 25.831543 30.831543 33.331543" y="-0.234375">36.0</tspan>
      </text>
     </g>
    </g>
    <g id="line2d_35">
     <path d="M 179.9768 75.691406 
L 189.9768 75.691406 
L 199.9768 75.691406 
" style="fill: none; stroke: #2ca02c; stroke-width: 1.5; stroke-linecap: square"/>
    </g>
    <g id="text_14">
     <!-- $\eta_i=$38.5 -->
     <g transform="translate(207.9768 79.191406)">
      <text>
       <tspan style="font: oblique 10px 'DejaVu Sans'" x="0" y="-0.234375">η</tspan>
       <tspan style="font: oblique 7px 'DejaVu Sans'" x="6.337891" y="1.40625">i</tspan>
       <tspan style="font: 10px 'DejaVu Sans'" x="10.504395" y="-0.234375">=</tspan>
       <tspan style="font: 10px 'Times New Roman'" x="20.831543 25.831543 30.831543 33.331543" y="-0.234375">38.5</tspan>
      </text>
     </g>
    </g>
    <g id="line2d_36">
     <path d="M 179.9768 89.830469 
L 189.9768 89.830469 
L 199.9768 89.830469 
" style="fill: none; stroke: #d62728; stroke-width: 1.5; stroke-linecap: square"/>
    </g>
    <g id="text_15">
     <!-- $\eta_i=$45.3 -->
     <g transform="translate(207.9768 93.330469)">
      <text>
       <tspan style="font: oblique 10px 'DejaVu Sans'" x="0" y="-0.234375">η</tspan>
       <tspan style="font: oblique 7px 'DejaVu Sans'" x="6.337891" y="1.40625">i</tspan>
       <tspan style="font: 10px 'DejaVu Sans'" x="10.504395" y="-0.234375">=</tspan>
       <tspan style="font: 10px 'Times New Roman'" x="20.831543 25.831543 30.831543 33.331543" y="-0.234375">45.3</tspan>
      </text>
     </g>
    </g>
    <g id="line2d_37">
     <path d="M 179.9768 103.969531 
L 189.9768 103.969531 
L 199.9768 103.969531 
" style="fill: none; stroke: #9467bd; stroke-width: 1.5; stroke-linecap: square"/>
    </g>
    <g id="text_16">
     <!-- $\eta_i=$58.2 -->
     <g transform="translate(207.9768 107.469531)">
      <text>
       <tspan style="font: oblique 10px 'DejaVu Sans'" x="0" y="-0.234375">η</tspan>
       <tspan style="font: oblique 7px 'DejaVu Sans'" x="6.337891" y="1.40625">i</tspan>
       <tspan style="font: 10px 'DejaVu Sans'" x="10.504395" y="-0.234375">=</tspan>
       <tspan style="font: 10px 'Times New Roman'" x="20.831543 25.831543 30.831543 33.331543" y="-0.234375">58.2</tspan>
      </text>
     </g>
    </g>
    <g id="line2d_38">
     <path d="M 179.9768 118.108594 
L 189.9768 118.108594 
L 199.9768 118.108594 
" style="fill: none; stroke: #8c564b; stroke-width: 1.5; stroke-linecap: square"/>
    </g>
    <g id="text_17">
     <!-- $\eta_i=$25.6 -->
     <g transform="translate(207.9768 121.608594)">
      <text>
       <tspan style="font: oblique 10px 'DejaVu Sans'" x="0" y="-0.234375">η</tspan>
       <tspan style="font: oblique 7px 'DejaVu Sans'" x="6.337891" y="1.40625">i</tspan>
       <tspan style="font: 10px 'DejaVu Sans'" x="10.504395" y="-0.234375">=</tspan>
       <tspan style="font: 10px 'Times New Roman'" x="20.831543 25.831543 30.831543 33.331543" y="-0.234375">25.6</tspan>
      </text>
     </g>
    </g>
    <g id="line2d_39">
     <path d="M 179.9768 132.247656 
L 189.9768 132.247656 
L 199.9768 132.247656 
" style="fill: none; stroke: #e377c2; stroke-width: 1.5; stroke-linecap: square"/>
    </g>
    <g id="text_18">
     <!-- $\eta_i=$30.8 -->
     <g transform="translate(207.9768 135.747656)">
      <text>
       <tspan style="font: oblique 10px 'DejaVu Sans'" x="0" y="-0.234375">η</tspan>
       <tspan style="font: oblique 7px 'DejaVu Sans'" x="6.337891" y="1.40625">i</tspan>
       <tspan style="font: 10px 'DejaVu Sans'" x="10.504395" y="-0.234375">=</tspan>
       <tspan style="font: 10px 'Times New Roman'" x="20.831543 25.831543 30.831543 33.331543" y="-0.234375">30.8</tspan>
      </text>
     </g>
    </g>
   </g>
  </g>
 </g>
 <defs>
  <clipPath id="p72fc344b32">
   <rect x="32.4" y="21.6" width="200.88" height="138.6"/>
  </clipPath>
 </defs>
</svg>
