<?xml version="1.0" encoding="UTF-8" standalone="no"?>
<svg
   width="262.25089pt"
   height="192.20338pt"
   viewBox="0 0 262.25088 192.20338"
   version="1.1"
   id="svg537"
   sodipodi:docname="fig.svg"
   xmlns:inkscape="http://www.inkscape.org/namespaces/inkscape"
   xmlns:sodipodi="http://sodipodi.sourceforge.net/DTD/sodipodi-0.dtd"
   xmlns:xlink="http://www.w3.org/1999/xlink"
   xmlns="http://www.w3.org/2000/svg"
   xmlns:svg="http://www.w3.org/2000/svg"
   xmlns:rdf="http://www.w3.org/1999/02/22-rdf-syntax-ns#"
   xmlns:cc="http://creativecommons.org/ns#"
   xmlns:dc="http://purl.org/dc/elements/1.1/">
  <sodipodi:namedview
     id="namedview539"
     pagecolor="#ffffff"
     bordercolor="#000000"
     borderopacity="0.25"
     inkscape:showpageshadow="2"
     inkscape:pageopacity="0.0"
     inkscape:pagecheckerboard="0"
     inkscape:deskcolor="#d1d1d1"
     inkscape:document-units="pt"
     showgrid="false" />
  <metadata
     id="metadata2">
    <rdf:RDF>
      <cc:Work>
        <dc:type
           rdf:resource="http://purl.org/dc/dcmitype/StillImage" />
        <dc:date>2022-10-13T19:27:11.742367</dc:date>
        <dc:format>image/svg+xml</dc:format>
        <dc:creator>
          <cc:Agent>
            <dc:title>Matplotlib v3.5.3, https://matplotlib.org/</dc:title>
          </cc:Agent>
        </dc:creator>
      </cc:Work>
    </rdf:RDF>
  </metadata>
  <defs
     id="defs6">
    <style
       type="text/css"
       id="style4">*{stroke-linejoin: round; stroke-linecap: butt}</style>
  </defs>
  <g
     id="figure_1"
     transform="translate(5.3389831)">
    <g
       id="patch_1">
      <path
         d="M 0,180 H 259.2 V 0 H 0 Z"
         style="fill:#ffffff"
         id="path8" />
    </g>
    <g
       id="axes_1">
      <g
         id="patch_2">
        <path
           d="M 32.4,160.2 H 233.28 V 21.6 H 32.4 Z"
           style="fill:#ffffff"
           id="path11" />
      </g>
      <g
         id="matplotlib.axis_1">
        <g
           id="xtick_1">
          <g
             id="line2d_1">
            <path
               d="M 67.059123,160.2 V 21.6"
               clip-path="url(#p7efea73b7e)"
               style="fill:none;stroke:#b0b0b0;stroke-width:0.8;stroke-linecap:square"
               id="path14" />
          </g>
          <g
             id="line2d_2">
            <defs
               id="defs18">
              <path
                 id="m1ad8801117"
                 d="M 0,0 V 3.5"
                 style="stroke:#000000;stroke-width:0.8" />
            </defs>
            <g
               id="g22">
              <use
                 xlink:href="#m1ad8801117"
                 x="67.05912"
                 y="160.2"
                 style="stroke:#000000;stroke-width:0.8"
                 id="use20" />
            </g>
          </g>
          <g
             id="text_1">
            <!-- 200 -->
            <g
               transform="matrix(0.1,0,0,-0.1,59.559123,174.14375)"
               id="g35">
              <defs
                 id="defs27">
                <path
                   id="TimesNewRomanPSMT-32"
                   d="M 2934,816 2638,0 H 138 v 116 q 1103,1006 1553,1643 450,638 450,1166 0,403 -247,662 -247,260 -591,260 -312,0 -561,-183 Q 494,3481 375,3128 H 259 q 79,578 402,887 323,310 808,310 515,0 860,-331 346,-331 346,-781 0,-322 -150,-644 Q 2294,2063 1775,1497 997,647 803,472 h 1106 q 338,0 474,25 136,25 245,101 110,77 191,218 z"
                   transform="scale(0.015625)" />
                <path
                   id="TimesNewRomanPSMT-30"
                   d="m 231,2094 q 0,725 219,1248 219,524 581,780 282,203 582,203 487,0 875,-497 484,-615 484,-1669 0,-737 -213,-1253 Q 2547,391 2217,158 1888,-75 1581,-75 975,-75 572,641 231,1244 231,2094 Z m 613,-78 q 0,-875 215,-1428 179,-466 532,-466 168,0 349,151 182,152 276,508 143,538 143,1516 0,725 -150,1209 -112,360 -290,510 -128,103 -310,103 -212,0 -378,-191 -225,-259 -306,-816 -81,-556 -81,-1096 z"
                   transform="scale(0.015625)" />
              </defs>
              <use
                 xlink:href="#TimesNewRomanPSMT-32"
                 id="use29" />
              <use
                 xlink:href="#TimesNewRomanPSMT-30"
                 x="50"
                 id="use31" />
              <use
                 xlink:href="#TimesNewRomanPSMT-30"
                 x="100"
                 id="use33" />
            </g>
          </g>
        </g>
        <g
           id="xtick_2">
          <g
             id="line2d_3">
            <path
               d="M 122.75545,160.2 V 21.6"
               clip-path="url(#p7efea73b7e)"
               style="fill:none;stroke:#b0b0b0;stroke-width:0.8;stroke-linecap:square"
               id="path39" />
          </g>
          <g
             id="line2d_4">
            <g
               id="g44">
              <use
                 xlink:href="#m1ad8801117"
                 x="122.75545"
                 y="160.2"
                 style="stroke:#000000;stroke-width:0.8"
                 id="use42" />
            </g>
          </g>
          <g
             id="text_2">
            <!-- 400 -->
            <g
               transform="matrix(0.1,0,0,-0.1,115.25545,174.14375)"
               id="g56">
              <defs
                 id="defs48">
                <path
                   id="TimesNewRomanPSMT-34"
                   d="M 2978,1563 V 1119 H 2409 V 0 H 1894 V 1119 H 100 v 400 l 1966,2806 h 343 V 1563 Z m -1084,0 V 3666 L 406,1563 Z"
                   transform="scale(0.015625)" />
              </defs>
              <use
                 xlink:href="#TimesNewRomanPSMT-34"
                 id="use50" />
              <use
                 xlink:href="#TimesNewRomanPSMT-30"
                 x="50"
                 id="use52" />
              <use
                 xlink:href="#TimesNewRomanPSMT-30"
                 x="100"
                 id="use54" />
            </g>
          </g>
        </g>
        <g
           id="xtick_3">
          <g
             id="line2d_5">
            <path
               d="M 178.45177,160.2 V 21.6"
               clip-path="url(#p7efea73b7e)"
               style="fill:none;stroke:#b0b0b0;stroke-width:0.8;stroke-linecap:square"
               id="path60" />
          </g>
          <g
             id="line2d_6">
            <g
               id="g65">
              <use
                 xlink:href="#m1ad8801117"
                 x="178.45177"
                 y="160.2"
                 style="stroke:#000000;stroke-width:0.8"
                 id="use63" />
            </g>
          </g>
          <g
             id="text_3">
            <!-- 600 -->
            <g
               transform="matrix(0.1,0,0,-0.1,170.95177,174.14375)"
               id="g77">
              <defs
                 id="defs69">
                <path
                   id="TimesNewRomanPSMT-36"
                   d="m 2869,4325 v -116 q -413,-40 -674,-164 -261,-123 -516,-376 -254,-253 -421,-564 -167,-311 -280,-739 450,309 903,309 435,0 753,-350 319,-350 319,-900 0,-531 -322,-969 -387,-531 -1025,-531 -434,0 -737,288 -594,559 -594,1450 0,568 228,1080 228,513 651,910 424,397 811,534 388,138 723,138 z M 925,2138 q -56,-422 -56,-682 0,-300 111,-652 111,-351 329,-557 160,-147 388,-147 272,0 486,256 214,257 214,732 0,534 -213,924 -212,391 -603,391 -118,0 -254,-50 -136,-50 -402,-215 z"
                   transform="scale(0.015625)" />
              </defs>
              <use
                 xlink:href="#TimesNewRomanPSMT-36"
                 id="use71" />
              <use
                 xlink:href="#TimesNewRomanPSMT-30"
                 x="50"
                 id="use73" />
              <use
                 xlink:href="#TimesNewRomanPSMT-30"
                 x="100"
                 id="use75" />
            </g>
          </g>
        </g>
        <g
           id="text_4">
          <!-- Ground Range [km] -->
          <g
             transform="matrix(0.1,0,0,-0.1,92.57125,187.22656)"
             id="g132">
            <defs
               id="defs96">
              <path
                 id="TimesNewRomanPSMT-47"
                 d="m 3928,4334 110,-1337 h -110 q -165,500 -428,753 -378,366 -972,366 -809,0 -1231,-641 -353,-541 -353,-1287 0,-607 234,-1107 235,-500 614,-733 380,-232 780,-232 234,0 453,59 219,59 422,175 v 1225 q 0,319 -49,417 -48,99 -150,150 -101,52 -357,52 v 119 h 1640 v -119 h -78 q -244,0 -334,-163 -63,-115 -63,-456 V 278 Q 3697,84 3347,-6 2997,-97 2569,-97 1341,-97 703,691 225,1281 225,2053 q 0,560 269,1072 319,609 875,938 465,271 1100,271 231,0 420,-38 189,-37 536,-165 175,-65 234,-65 60,0 102,54 42,55 52,214 z"
                 transform="scale(0.015625)" />
              <path
                 id="TimesNewRomanPSMT-72"
                 d="m 1038,2947 v -644 q 359,644 737,644 172,0 284,-105 113,-104 113,-242 0,-122 -82,-207 -81,-84 -193,-84 -109,0 -245,108 -136,108 -202,108 -56,0 -122,-62 -140,-129 -290,-422 V 669 q 0,-238 59,-360 41,-84 144,-140 103,-56 297,-56 V 0 H 72 v 113 q 219,0 325,68 78,50 109,160 16,53 16,303 v 1109 q 0,500 -21,595 -20,96 -75,139 -54,44 -135,44 -97,0 -219,-47 l -31,113 865,350 z"
                 transform="scale(0.015625)" />
              <path
                 id="TimesNewRomanPSMT-6f"
                 d="m 1600,2947 q 650,0 1044,-494 334,-422 334,-969 0,-384 -185,-778 Q 2609,313 2286,112 1963,-88 1566,-88 919,-88 538,428 216,863 216,1403 q 0,394 195,783 195,389 514,575 319,186 675,186 z m -97,-203 q -165,0 -333,-99 -167,-98 -270,-345 -103,-247 -103,-634 0,-625 248,-1079 249,-453 655,-453 303,0 500,250 197,250 197,860 0,762 -328,1200 -222,300 -566,300 z"
                 transform="scale(0.015625)" />
              <path
                 id="TimesNewRomanPSMT-75"
                 d="M 2709,2863 V 1128 q 0,-497 23,-608 24,-111 75,-155 52,-43 121,-43 97,0 219,53 L 3191,266 2334,-88 H 2194 V 519 Q 1825,119 1631,15 1438,-88 1222,-88 981,-88 804,51 628,191 559,409 491,628 491,1028 v 1278 q 0,203 -44,281 -44,79 -130,121 -86,42 -311,39 v 116 H 1009 V 947 q 0,-400 139,-525 140,-125 336,-125 135,0 305,84 170,85 405,322 v 1622 q 0,244 -89,330 -89,86 -371,92 v 116 z"
                 transform="scale(0.015625)" />
              <path
                 id="TimesNewRomanPSMT-6e"
                 d="m 1034,2341 q 504,606 960,606 234,0 403,-117 169,-117 269,-386 68,-188 68,-575 V 647 q 0,-272 44,-369 35,-78 111,-122 77,-43 283,-43 V 0 H 1756 v 113 h 60 q 200,0 279,60 80,61 111,180 13,47 13,294 v 1172 q 0,390 -102,567 -101,177 -342,177 -372,0 -741,-407 V 647 q 0,-291 35,-359 44,-91 120,-133 77,-42 311,-42 V 0 H 84 v 113 h 63 q 219,0 295,110 77,111 77,424 v 1062 q 0,516 -24,628 -23,113 -72,153 -48,41 -129,41 -88,0 -210,-47 l -46,113 862,350 h 134 z"
                 transform="scale(0.015625)" />
              <path
                 id="TimesNewRomanPSMT-64"
                 d="M 2222,322 Q 2013,103 1813,7 1613,-88 1381,-88 913,-88 563,304 213,697 213,1313 q 0,615 387,1126 388,511 997,511 378,0 625,-241 v 529 q 0,490 -24,602 -23,113 -73,153 -50,41 -125,41 -81,0 -216,-50 l -40,110 853,350 h 141 V 1134 q 0,-503 23,-614 23,-111 75,-155 52,-43 120,-43 85,0 225,53 l 35,-109 -850,-354 h -144 z m 0,219 v 1475 q -19,212 -113,387 -93,175 -248,264 -155,89 -302,89 -275,0 -490,-247 -285,-325 -285,-950 0,-631 275,-967 275,-336 613,-336 284,0 550,285 z"
                 transform="scale(0.015625)" />
              <path
                 id="TimesNewRomanPSMT-20"
                 transform="scale(0.015625)"
                 d="" />
              <path
                 id="TimesNewRomanPSMT-52"
                 d="M 4325,0 H 3194 L 1759,1981 q -159,-6 -259,-6 -41,0 -88,1 -46,2 -96,5 V 750 q 0,-400 87,-497 119,-137 356,-137 h 166 V 0 H 109 v 116 h 160 q 269,0 384,175 66,97 66,459 v 2738 q 0,400 -88,496 -122,138 -362,138 H 109 v 116 h 1544 q 675,0 995,-99 321,-98 544,-362 224,-264 224,-630 0,-391 -255,-679 -255,-287 -789,-405 L 3247,847 Q 3547,428 3762,290 3978,153 4325,116 Z M 1316,2178 q 59,0 103,-2 44,-1 72,-1 606,0 914,262 308,263 308,669 0,397 -249,645 -248,249 -658,249 -181,0 -490,-59 z"
                 transform="scale(0.015625)" />
              <path
                 id="TimesNewRomanPSMT-61"
                 d="M 1822,413 Q 1381,72 1269,19 1100,-59 909,-59 613,-59 420,144 228,347 228,678 q 0,210 94,363 128,212 445,399 317,188 1055,457 v 112 q 0,429 -136,588 -136,159 -395,159 -197,0 -313,-106 -119,-106 -119,-244 l 7,-181 q 0,-144 -74,-222 -73,-78 -192,-78 -116,0 -189,81 -73,82 -73,222 0,269 275,494 275,225 771,225 382,0 625,-128 185,-97 272,-303 57,-135 57,-550 V 994 q 0,-410 15,-502 16,-92 52,-123 36,-31 83,-31 50,0 87,21 66,41 253,229 V 413 q -350,-469 -669,-469 -153,0 -244,106 -90,106 -93,363 z m 0,203 V 1706 Q 1350,1519 1213,1441 966,1303 859,1153 753,1003 753,825 q 0,-225 134,-374 135,-148 310,-148 237,0 625,313 z"
                 transform="scale(0.015625)" />
              <path
                 id="TimesNewRomanPSMT-67"
                 d="m 966,1044 q -263,128 -404,357 -140,230 -140,508 0,425 320,731 321,307 821,307 409,0 709,-200 h 606 q 135,0 156,-8 22,-8 32,-26 18,-29 18,-100 0,-82 -15,-113 -10,-16 -33,-25 -23,-9 -158,-9 h -372 q 175,-225 175,-575 0,-400 -306,-685 -306,-284 -822,-284 -212,0 -434,62 Q 981,866 932,777 884,688 884,625 q 0,-53 52,-103 52,-50 202,-72 87,-12 437,-22 644,-15 834,-44 291,-40 464,-215 174,-175 174,-432 0,-353 -331,-662 -488,-456 -1272,-456 -603,0 -1019,272 -234,156 -234,325 0,75 34,150 53,115 219,321 22,29 319,338 -163,97 -230,173 -67,77 -67,174 0,109 89,256 89,147 411,416 z m 543,1753 q -231,0 -387,-185 -156,-184 -156,-565 0,-494 212,-766 163,-206 413,-206 237,0 390,178 153,178 153,560 0,496 -215,778 -160,206 -410,206 z M 934,0 q -146,-159 -221,-296 -75,-138 -75,-254 0,-150 181,-263 312,-193 903,-193 562,0 829,199 268,198 268,423 0,162 -160,231 -162,69 -643,81 -703,19 -1082,72 z"
                 transform="scale(0.015625)" />
              <path
                 id="TimesNewRomanPSMT-65"
                 d="m 681,1784 q -3,-637 310,-1000 312,-362 734,-362 281,0 489,154 208,155 349,530 l 96,-62 Q 2594,616 2278,264 1963,-88 1488,-88 972,-88 605,314 238,716 238,1394 q 0,734 376,1145 377,411 945,411 482,0 791,-317 309,-317 309,-849 z m 0,182 h 1325 q -15,275 -65,387 -78,175 -233,275 -155,100 -324,100 -259,0 -464,-202 -204,-201 -239,-560 z"
                 transform="scale(0.015625)" />
              <path
                 id="TimesNewRomanPSMT-5b"
                 d="M 1900,-1269 H 525 V 4334 H 1900 V 4088 H 994 v -5113 h 906 z"
                 transform="scale(0.015625)" />
              <path
                 id="TimesNewRomanPSMT-6b"
                 d="M 1047,4444 V 1597 l 728,662 q 231,213 269,269 25,38 25,75 0,63 -52,108 -51,45 -170,52 v 100 h 1244 v -100 q -257,-7 -427,-79 -170,-71 -373,-256 l -735,-678 735,-928 q 306,-384 412,-488 150,-146 263,-190 78,-31 272,-31 V 0 H 1847 v 113 q 119,3 161,35 42,33 42,93 0,72 -125,231 L 1047,1594 V 644 q 0,-278 39,-366 39,-87 111,-125 72,-37 312,-40 V 0 H 53 v 113 q 219,0 328,53 66,34 100,106 47,103 47,356 v 2606 q 0,497 -22,608 -22,111 -72,153 -50,43 -131,43 -65,0 -197,-54 l -53,110 850,350 z"
                 transform="scale(0.015625)" />
              <path
                 id="TimesNewRomanPSMT-6d"
                 d="m 1050,2338 q 313,312 369,359 140,119 302,184 163,66 323,66 269,0 462,-157 194,-156 260,-452 322,375 543,492 222,117 457,117 228,0 404,-117 177,-117 280,-383 69,-181 69,-569 V 647 q 0,-269 40,-369 32,-69 116,-117 84,-48 275,-48 V 0 H 3538 v 113 h 59 q 184,0 287,71 72,50 104,160 12,53 12,303 v 1231 q 0,350 -84,494 -122,200 -391,200 -166,0 -333,-83 -167,-83 -404,-308 l -7,-34 7,-134 V 647 q 0,-294 32,-366 33,-72 123,-120 91,-48 310,-48 V 0 H 1806 v 113 q 238,0 327,56 89,56 123,169 16,53 16,309 v 1231 q 0,350 -103,503 -138,200 -385,200 -168,0 -334,-90 -259,-138 -400,-310 V 647 q 0,-281 39,-366 39,-84 115,-126 77,-42 312,-42 V 0 H 100 v 113 q 197,0 275,42 78,42 118,134 41,92 41,358 v 1094 q 0,472 -28,609 -22,103 -69,142 -46,39 -128,39 -87,0 -209,-47 l -47,113 863,350 h 134 z"
                 transform="scale(0.015625)" />
              <path
                 id="TimesNewRomanPSMT-5d"
                 d="M 234,4334 H 1609 V -1272 H 234 v 247 h 907 V 4088 H 234 Z"
                 transform="scale(0.015625)" />
            </defs>
            <use
               xlink:href="#TimesNewRomanPSMT-47"
               id="use98" />
            <use
               xlink:href="#TimesNewRomanPSMT-72"
               x="72.216797"
               id="use100" />
            <use
               xlink:href="#TimesNewRomanPSMT-6f"
               x="105.51758"
               id="use102" />
            <use
               xlink:href="#TimesNewRomanPSMT-75"
               x="155.51758"
               id="use104" />
            <use
               xlink:href="#TimesNewRomanPSMT-6e"
               x="205.51758"
               id="use106" />
            <use
               xlink:href="#TimesNewRomanPSMT-64"
               x="255.51758"
               id="use108" />
            <use
               xlink:href="#TimesNewRomanPSMT-20"
               x="305.51758"
               id="use110" />
            <use
               xlink:href="#TimesNewRomanPSMT-52"
               x="330.51758"
               id="use112" />
            <use
               xlink:href="#TimesNewRomanPSMT-61"
               x="397.2168"
               id="use114" />
            <use
               xlink:href="#TimesNewRomanPSMT-6e"
               x="441.60156"
               id="use116" />
            <use
               xlink:href="#TimesNewRomanPSMT-67"
               x="491.60156"
               id="use118" />
            <use
               xlink:href="#TimesNewRomanPSMT-65"
               x="541.60156"
               id="use120" />
            <use
               xlink:href="#TimesNewRomanPSMT-20"
               x="585.98633"
               id="use122" />
            <use
               xlink:href="#TimesNewRomanPSMT-5b"
               x="610.98633"
               id="use124" />
            <use
               xlink:href="#TimesNewRomanPSMT-6b"
               x="644.28711"
               id="use126" />
            <use
               xlink:href="#TimesNewRomanPSMT-6d"
               x="694.28711"
               id="use128" />
            <use
               xlink:href="#TimesNewRomanPSMT-5d"
               x="772.07031"
               id="use130" />
          </g>
        </g>
      </g>
      <g
         id="matplotlib.axis_2">
        <g
           id="ytick_1">
          <g
             id="line2d_7">
            <path
               d="M 32.4,155.11841 H 233.28"
               clip-path="url(#p7efea73b7e)"
               style="fill:none;stroke:#b0b0b0;stroke-width:0.8;stroke-linecap:square"
               id="path136" />
          </g>
          <g
             id="line2d_8">
            <defs
               id="defs140">
              <path
                 id="m14600b7619"
                 d="M 0,0 H -3.5"
                 style="stroke:#000000;stroke-width:0.8" />
            </defs>
            <g
               id="g144">
              <use
                 xlink:href="#m14600b7619"
                 x="32.400002"
                 y="155.11841"
                 style="stroke:#000000;stroke-width:0.8"
                 id="use142" />
            </g>
          </g>
          <g
             id="text_5">
            <!-- 0.0 -->
            <g
               transform="matrix(0.1,0,0,-0.1,12.9,158.59029)"
               id="g156">
              <defs
                 id="defs148">
                <path
                   id="TimesNewRomanPSMT-2e"
                   d="M 800,606 Q 947,606 1047,504 1147,403 1147,259 1147,116 1045,14 944,-88 800,-88 656,-88 554,14 453,116 453,259 q 0,147 101,247 102,100 246,100 z"
                   transform="scale(0.015625)" />
              </defs>
              <use
                 xlink:href="#TimesNewRomanPSMT-30"
                 id="use150" />
              <use
                 xlink:href="#TimesNewRomanPSMT-2e"
                 x="50"
                 id="use152" />
              <use
                 xlink:href="#TimesNewRomanPSMT-30"
                 x="75"
                 id="use154" />
            </g>
          </g>
        </g>
        <g
           id="ytick_2">
          <g
             id="line2d_9">
            <path
               d="M 32.4,129.62805 H 233.28"
               clip-path="url(#p7efea73b7e)"
               style="fill:none;stroke:#b0b0b0;stroke-width:0.8;stroke-linecap:square"
               id="path160" />
          </g>
          <g
             id="line2d_10">
            <g
               id="g165">
              <use
                 xlink:href="#m14600b7619"
                 x="32.400002"
                 y="129.62805"
                 style="stroke:#000000;stroke-width:0.8"
                 id="use163" />
            </g>
          </g>
          <g
             id="text_6">
            <!-- 0.2 -->
            <g
               transform="matrix(0.1,0,0,-0.1,12.9,133.09992)"
               id="g174">
              <use
                 xlink:href="#TimesNewRomanPSMT-30"
                 id="use168" />
              <use
                 xlink:href="#TimesNewRomanPSMT-2e"
                 x="50"
                 id="use170" />
              <use
                 xlink:href="#TimesNewRomanPSMT-32"
                 x="75"
                 id="use172" />
            </g>
          </g>
        </g>
        <g
           id="ytick_3">
          <g
             id="line2d_11">
            <path
               d="M 32.4,104.13768 H 233.28"
               clip-path="url(#p7efea73b7e)"
               style="fill:none;stroke:#b0b0b0;stroke-width:0.8;stroke-linecap:square"
               id="path178" />
          </g>
          <g
             id="line2d_12">
            <g
               id="g183">
              <use
                 xlink:href="#m14600b7619"
                 x="32.400002"
                 y="104.13768"
                 style="stroke:#000000;stroke-width:0.8"
                 id="use181" />
            </g>
          </g>
          <g
             id="text_7">
            <!-- 0.4 -->
            <g
               transform="matrix(0.1,0,0,-0.1,12.9,107.60955)"
               id="g192">
              <use
                 xlink:href="#TimesNewRomanPSMT-30"
                 id="use186" />
              <use
                 xlink:href="#TimesNewRomanPSMT-2e"
                 x="50"
                 id="use188" />
              <use
                 xlink:href="#TimesNewRomanPSMT-34"
                 x="75"
                 id="use190" />
            </g>
          </g>
        </g>
        <g
           id="ytick_4">
          <g
             id="line2d_13">
            <path
               d="M 32.4,78.64731 H 233.28"
               clip-path="url(#p7efea73b7e)"
               style="fill:none;stroke:#b0b0b0;stroke-width:0.8;stroke-linecap:square"
               id="path196" />
          </g>
          <g
             id="line2d_14">
            <g
               id="g201">
              <use
                 xlink:href="#m14600b7619"
                 x="32.400002"
                 y="78.647308"
                 style="stroke:#000000;stroke-width:0.8"
                 id="use199" />
            </g>
          </g>
          <g
             id="text_8">
            <!-- 0.6 -->
            <g
               transform="matrix(0.1,0,0,-0.1,12.9,82.119185)"
               id="g210">
              <use
                 xlink:href="#TimesNewRomanPSMT-30"
                 id="use204" />
              <use
                 xlink:href="#TimesNewRomanPSMT-2e"
                 x="50"
                 id="use206" />
              <use
                 xlink:href="#TimesNewRomanPSMT-36"
                 x="75"
                 id="use208" />
            </g>
          </g>
        </g>
        <g
           id="ytick_5">
          <g
             id="line2d_15">
            <path
               d="M 32.4,53.156942 H 233.28"
               clip-path="url(#p7efea73b7e)"
               style="fill:none;stroke:#b0b0b0;stroke-width:0.8;stroke-linecap:square"
               id="path214" />
          </g>
          <g
             id="line2d_16">
            <g
               id="g219">
              <use
                 xlink:href="#m14600b7619"
                 x="32.400002"
                 y="53.15694"
                 style="stroke:#000000;stroke-width:0.8"
                 id="use217" />
            </g>
          </g>
          <g
             id="text_9">
            <!-- 0.8 -->
            <g
               transform="matrix(0.1,0,0,-0.1,12.9,56.628817)"
               id="g231">
              <defs
                 id="defs223">
                <path
                   id="TimesNewRomanPSMT-38"
                   d="m 1228,2134 q -503,413 -649,663 -145,250 -145,519 0,412 319,710 319,299 847,299 513,0 825,-278 313,-278 313,-634 0,-238 -169,-485 -169,-247 -703,-581 550,-425 728,-669 237,-319 237,-672 0,-447 -341,-764 -340,-317 -893,-317 -603,0 -941,378 -268,303 -268,663 0,281 189,557 189,277 651,611 z m 491,335 q 375,337 475,532 100,196 100,443 0,328 -185,514 -184,186 -503,186 -318,0 -518,-185 -200,-184 -200,-431 0,-162 82,-325 83,-162 236,-309 z M 1375,2016 Q 1116,1797 991,1539 866,1281 866,981 866,578 1086,336 1306,94 1647,94 q 337,0 540,190 204,191 204,463 0,225 -119,403 -222,331 -897,866 z"
                   transform="scale(0.015625)" />
              </defs>
              <use
                 xlink:href="#TimesNewRomanPSMT-30"
                 id="use225" />
              <use
                 xlink:href="#TimesNewRomanPSMT-2e"
                 x="50"
                 id="use227" />
              <use
                 xlink:href="#TimesNewRomanPSMT-38"
                 x="75"
                 id="use229" />
            </g>
          </g>
        </g>
        <g
           id="ytick_6">
          <g
             id="line2d_17">
            <path
               d="M 32.4,27.666574 H 233.28"
               clip-path="url(#p7efea73b7e)"
               style="fill:none;stroke:#b0b0b0;stroke-width:0.8;stroke-linecap:square"
               id="path235" />
          </g>
          <g
             id="line2d_18">
            <g
               id="g240">
              <use
                 xlink:href="#m14600b7619"
                 x="32.400002"
                 y="27.666574"
                 style="stroke:#000000;stroke-width:0.8"
                 id="use238" />
            </g>
          </g>
          <g
             id="text_10">
            <!-- 1.0 -->
            <g
               transform="matrix(0.1,0,0,-0.1,12.9,31.138449)"
               id="g252">
              <defs
                 id="defs244">
                <path
                   id="TimesNewRomanPSMT-31"
                   d="m 750,3822 1031,503 h 103 V 747 q 0,-356 30,-444 30,-87 123,-134 94,-47 382,-53 V 0 H 825 v 116 q 300,6 387,51 88,46 122,122 35,77 35,458 v 2287 q 0,463 -31,594 -22,100 -80,147 -58,47 -139,47 -116,0 -322,-97 z"
                   transform="scale(0.015625)" />
              </defs>
              <use
                 xlink:href="#TimesNewRomanPSMT-31"
                 id="use246" />
              <use
                 xlink:href="#TimesNewRomanPSMT-2e"
                 x="50"
                 id="use248" />
              <use
                 xlink:href="#TimesNewRomanPSMT-30"
                 x="75"
                 id="use250" />
            </g>
          </g>
        </g>
        <g
           id="text_11">
          <!-- Probability of Detection -->
          <g
             transform="matrix(0,-0.1,-0.1,0,6.742187,139.22266)"
             id="g315">
            <defs
               id="defs265">
              <path
                 id="TimesNewRomanPSMT-50"
                 d="M 1313,1984 V 750 q 0,-400 87,-497 119,-137 359,-137 h 163 V 0 H 106 v 116 h 160 q 268,0 384,175 63,97 63,459 v 2738 q 0,400 -85,496 -122,138 -362,138 H 106 v 116 h 1553 q 569,0 897,-118 328,-117 553,-395 225,-278 225,-659 0,-519 -342,-844 -342,-325 -967,-325 -153,0 -331,22 -178,22 -381,65 z m 0,179 q 165,-32 293,-48 128,-15 219,-15 325,0 561,251 236,252 236,652 0,275 -113,511 -112,236 -319,353 -206,117 -468,117 -159,0 -409,-59 z"
                 transform="scale(0.015625)" />
              <path
                 id="TimesNewRomanPSMT-62"
                 d="m 984,2369 q 416,578 897,578 441,0 769,-377 328,-376 328,-1029 Q 2978,778 2472,313 2038,-88 1503,-88 1253,-88 995,3 738,94 469,275 v 2966 q 0,487 -24,599 -23,113 -73,153 -50,41 -125,41 -88,0 -219,-50 l -44,110 860,350 h 140 z m 0,-200 V 456 q 160,-156 330,-236 170,-79 349,-79 284,0 529,312 246,313 246,910 0,550 -246,845 -245,295 -558,295 -165,0 -331,-84 -125,-63 -319,-250 z"
                 transform="scale(0.015625)" />
              <path
                 id="TimesNewRomanPSMT-69"
                 d="m 928,4444 q 131,0 223,-93 93,-92 93,-223 0,-131 -93,-225 -92,-94 -223,-94 -131,0 -225,94 -94,94 -94,225 0,131 92,223 93,93 227,93 z M 1188,2947 V 647 q 0,-269 39,-358 39,-89 115,-133 77,-43 280,-43 V 0 H 231 v 113 q 210,0 281,40 72,41 114,134 43,94 43,360 v 1103 q 0,466 -28,603 -22,100 -69,139 -47,39 -128,39 -88,0 -213,-47 l -43,113 862,350 z"
                 transform="scale(0.015625)" />
              <path
                 id="TimesNewRomanPSMT-6c"
                 d="M 1184,4444 V 647 q 0,-269 39,-357 40,-87 121,-132 81,-45 303,-45 V 0 H 244 v 113 q 197,0 268,40 72,41 113,134 41,94 41,360 v 2600 q 0,484 -22,595 -22,111 -71,151 -48,41 -123,41 -81,0 -206,-50 l -53,110 853,350 z"
                 transform="scale(0.015625)" />
              <path
                 id="TimesNewRomanPSMT-74"
                 d="m 1031,3803 v -940 h 669 V 2644 H 1031 V 788 q 0,-279 80,-376 80,-96 205,-96 103,0 200,64 97,64 150,189 h 122 Q 1678,263 1478,108 1278,-47 1066,-47 922,-47 784,33 647,113 581,261 516,409 516,719 V 2644 H 63 v 103 q 171,69 351,233 180,164 320,389 72,119 200,434 z"
                 transform="scale(0.015625)" />
              <path
                 id="TimesNewRomanPSMT-79"
                 d="m 38,2863 h 1334 v -116 h -66 q -140,0 -211,-61 -70,-61 -70,-152 0,-121 103,-337 l 697,-1444 641,1581 q 53,129 53,254 0,56 -22,84 -25,34 -78,54 -53,21 -188,21 v 116 h 932 v -116 q -116,-13 -179,-51 -62,-37 -137,-140 -28,-43 -106,-240 L 1575,-541 q -169,-415 -443,-627 -273,-213 -526,-213 -184,0 -303,106 -119,106 -119,244 0,131 86,211 86,79 236,79 103,0 282,-68 125,-47 156,-47 94,0 204,97 111,96 224,375 L 1575,113 547,2272 q -47,97 -150,241 -78,109 -128,146 -72,50 -231,88 z"
                 transform="scale(0.015625)" />
              <path
                 id="TimesNewRomanPSMT-66"
                 d="M 1319,2638 V 756 q 0,-400 87,-506 116,-137 310,-137 h 259 V 0 H 266 v 113 h 128 q 125,0 228,62 103,63 142,169 39,106 39,412 V 2638 H 247 v 225 h 556 v 187 q 0,428 137,725 138,297 421,480 283,183 636,183 328,0 603,-213 181,-141 181,-316 0,-93 -81,-176 -81,-83 -175,-83 -72,0 -152,51 -79,52 -195,222 -115,171 -212,230 -97,60 -216,60 -144,0 -244,-77 -100,-77 -144,-238 -43,-160 -43,-829 v -206 h 737 v -225 z"
                 transform="scale(0.015625)" />
              <path
                 id="TimesNewRomanPSMT-44"
                 d="m 109,0 v 116 h 160 q 269,0 381,172 69,103 69,462 v 2738 q 0,396 -88,496 -122,138 -362,138 H 109 v 116 h 1725 q 950,0 1445,-216 496,-216 797,-719 302,-503 302,-1162 0,-885 -537,-1478 Q 3238,0 2003,0 Z m 1210,306 q 397,-87 665,-87 725,0 1203,509 479,510 479,1381 0,879 -479,1385 -478,506 -1228,506 -281,0 -640,-91 z"
                 transform="scale(0.015625)" />
              <path
                 id="TimesNewRomanPSMT-63"
                 d="M 2631,1088 Q 2516,522 2178,217 1841,-88 1431,-88 944,-88 581,321 219,731 219,1428 q 0,675 401,1097 402,422 964,422 422,0 694,-224 272,-223 272,-464 0,-118 -77,-192 -76,-73 -214,-73 -184,0 -278,119 -53,65 -70,249 -17,185 -127,282 -109,94 -303,94 -312,0 -503,-232 -253,-306 -253,-809 0,-513 251,-905 252,-392 680,-392 307,0 550,209 172,144 335,522 z"
                 transform="scale(0.015625)" />
            </defs>
            <use
               xlink:href="#TimesNewRomanPSMT-50"
               id="use267" />
            <use
               xlink:href="#TimesNewRomanPSMT-72"
               x="55.615234"
               id="use269" />
            <use
               xlink:href="#TimesNewRomanPSMT-6f"
               x="88.916016"
               id="use271" />
            <use
               xlink:href="#TimesNewRomanPSMT-62"
               x="138.91602"
               id="use273" />
            <use
               xlink:href="#TimesNewRomanPSMT-61"
               x="188.91602"
               id="use275" />
            <use
               xlink:href="#TimesNewRomanPSMT-62"
               x="233.30078"
               id="use277" />
            <use
               xlink:href="#TimesNewRomanPSMT-69"
               x="283.30078"
               id="use279" />
            <use
               xlink:href="#TimesNewRomanPSMT-6c"
               x="311.08398"
               id="use281" />
            <use
               xlink:href="#TimesNewRomanPSMT-69"
               x="338.86719"
               id="use283" />
            <use
               xlink:href="#TimesNewRomanPSMT-74"
               x="366.65039"
               id="use285" />
            <use
               xlink:href="#TimesNewRomanPSMT-79"
               x="394.43359"
               id="use287" />
            <use
               xlink:href="#TimesNewRomanPSMT-20"
               x="444.43359"
               id="use289" />
            <use
               xlink:href="#TimesNewRomanPSMT-6f"
               x="469.43359"
               id="use291" />
            <use
               xlink:href="#TimesNewRomanPSMT-66"
               x="519.43359"
               id="use293" />
            <use
               xlink:href="#TimesNewRomanPSMT-20"
               x="552.73438"
               id="use295" />
            <use
               xlink:href="#TimesNewRomanPSMT-44"
               x="577.73438"
               id="use297" />
            <use
               xlink:href="#TimesNewRomanPSMT-65"
               x="649.95117"
               id="use299" />
            <use
               xlink:href="#TimesNewRomanPSMT-74"
               x="694.33594"
               id="use301" />
            <use
               xlink:href="#TimesNewRomanPSMT-65"
               x="722.11914"
               id="use303" />
            <use
               xlink:href="#TimesNewRomanPSMT-63"
               x="766.50391"
               id="use305" />
            <use
               xlink:href="#TimesNewRomanPSMT-74"
               x="810.88867"
               id="use307" />
            <use
               xlink:href="#TimesNewRomanPSMT-69"
               x="838.67188"
               id="use309" />
            <use
               xlink:href="#TimesNewRomanPSMT-6f"
               x="866.45508"
               id="use311" />
            <use
               xlink:href="#TimesNewRomanPSMT-6e"
               x="916.45508"
               id="use313" />
          </g>
        </g>
      </g>
      <g
         id="line2d_19">
        <path
           d="m 41.530909,153.9 0.198182,-0.63021 0.198304,-0.86632 0.198426,-1.15665 0.19855,-1.50337 0.198673,-1.90569 0.198798,-2.35952 0.198924,-2.85686 0.199051,-3.38577 0.199178,-3.93065 0.199307,-4.47267 0.199436,-4.99091 0.199566,-5.46366 0.199697,-5.86988 0.19983,-6.19097 0.199962,-6.41222 0.200095,-6.524041 0.200231,-6.522765 0.200365,-6.41083 0.200503,-6.196453 0.200639,-5.892737 0.200778,-5.516411 0.200916,-5.086342 0.201057,-4.622006 0.201198,-4.142107 0.201339,-3.663444 0.201482,-3.200128 0.201626,-2.763155 0.20177,-2.360319 0.201916,-1.996386 0.202062,-1.67347 0.202209,-1.391527 0.202358,-1.148864 0.202507,-0.94266 0.202656,-0.769399 0.202808,-0.625249 0.20296,-0.506341 0.203112,-0.408963 0.203267,-0.329704 0.203421,-0.265505 0.203576,-0.213701 0.203734,-0.172012 0.203891,-0.138517 0.204049,-0.111617 0.204209,-0.09 0.204369,-0.0726 0.204531,-0.05855 0.204693,-0.04715 0.204856,-0.03784 0.205021,-0.03017 0.205186,-0.02378 0.205352,-0.01838 0.205519,-0.01372 0.205687,-0.0096 0.205857,-0.0059 0.206027,-0.0023 0.206197,0.0011 0.20637,0.0046 0.206543,0.0082 0.206717,0.01224 0.206892,0.01674 0.207068,0.02194 0.207245,0.02807 0.207423,0.03542 0.207602,0.04434 0.207782,0.05528 0.207963,0.06879 0.208146,0.08558 0.208328,0.106508 0.208513,0.132658 0.208698,0.165366 0.208884,0.206271 0.209071,0.257362 0.209259,0.321013 0.209449,0.400023 0.209639,0.497622 0.20983,0.617446 0.210023,0.763465 0.210216,0.93985 0.210411,1.150746 0.210606,1.399959 0.210803,1.690547 0.211,2.024313 0.211199,2.401232 0.211399,2.818864 0.2116,3.271825 0.211802,3.75138 0.212005,4.245288 0.212209,4.737976 0.212414,5.211079 0.212621,5.644429 0.212827,6.017371 0.213037,6.310369 0.213245,6.50669 0.213457,6.593973 0.213668,6.565478 0.213881,6.42084 0.214095,6.16619 0.21431,5.81361 0.214527,5.38016 0.214744,4.88629 0.214962,4.35413 0.215182,3.80585 0.215402,3.26202 0.215624,2.74044 0.215848,2.25536 0.216071,1.81705 0.216297,1.43176 0.216523,1.10213 0.216751,0.8276 0.21698,0.60516"
           clip-path="url(#p7efea73b7e)"
           style="fill:none;stroke:#1f77b4;stroke-width:1.5;stroke-linecap:square"
           id="path319" />
      </g>
      <g
         id="line2d_20">
        <path
           d="m 44.839071,91.392494 h 15.80991"
           clip-path="url(#p7efea73b7e)"
           style="fill:none;stroke:#1f77b4;stroke-width:1.5;stroke-linecap:square"
           id="path322" />
      </g>
      <g
         id="line2d_21">
        <path
           d="m 94.998648,70.95627 0.145848,-2.586693 0.145984,-2.489926 0.146119,-2.389136 0.146255,-2.285352 0.146392,-2.179564 0.14653,-2.072702 0.146666,-1.965633 0.146804,-1.859152 0.146942,-1.753971 0.147081,-1.650725 0.147219,-1.54996 0.147358,-1.452142 0.147498,-1.357658 0.147638,-1.266812 0.147777,-1.179843 0.147919,-1.096917 0.148059,-1.018141 0.1482,-0.943566 0.148342,-0.873197 0.148484,-0.806995 0.148627,-0.744885 0.148769,-0.686762 0.148912,-0.6325 0.149056,-0.581948 0.149199,-0.534946 0.149344,-0.49132 0.149488,-0.450892 0.149633,-0.413477 0.149779,-0.378892 0.149924,-0.346956 0.15007,-0.317488 0.150217,-0.290315 0.150363,-0.265266 0.150516,-0.242184 0.15065,-0.220909 0.15081,-0.201299 0.15095,-0.183211 0.15111,-0.166518 0.15125,-0.151094 0.1514,-0.136826 0.15155,-0.123604 0.1517,-0.111328 0.15186,-0.0999 0.152,-0.08924 0.15215,-0.07926 0.15231,-0.06988 0.15246,-0.06104 0.15261,-0.05265 0.15277,-0.04467 0.15291,-0.03702 0.15308,-0.02965 0.15322,-0.02251 0.15338,-0.01554 0.15354,-0.0087 0.15369,-0.0019 0.15384,0.0049 0.15401,0.01169 0.15416,0.01858 0.15431,0.02561 0.15447,0.03282 0.15464,0.04028 0.15478,0.04804 0.15495,0.05615 0.15511,0.06469 0.15527,0.0737 0.15542,0.08327 0.15559,0.09346 0.15574,0.104358 0.15591,0.116036 0.15607,0.128589 0.15623,0.142108 0.1564,0.156695 0.15655,0.172458 0.15672,0.18951 0.15689,0.207974 0.15704,0.227977 0.15722,0.249657 0.15737,0.273155 0.15754,0.298624 0.15771,0.326216 0.15787,0.356098 0.15804,0.388432 0.15821,0.42339 0.15837,0.461143 0.15855,0.501863 0.15871,0.545718 0.15888,0.59287 0.15904,0.643476 0.15922,0.697677 0.15939,0.7556 0.15956,0.817351 0.15973,0.883008 0.1599,0.952623 0.16007,1.026206 0.16024,1.103728 0.16042,1.185115 0.16059,1.270232 0.16076,1.358893 0.16094,1.450843 0.16112,1.545761 0.16128,1.643255 0.16147,1.742858 0.16163,1.844027 0.16182,1.946146 0.16199,2.048527 0.16217,2.150412 0.16235,2.250981 0.16252,2.349364 0.1627,2.444639 0.16288,2.535862"
           clip-path="url(#p7efea73b7e)"
           style="fill:none;stroke:#ff7f0e;stroke-width:1.5;stroke-linecap:square"
           id="path325" />
      </g>
      <g
         id="line2d_22">
        <path
           d="M 94.998648,70.95627 H 111.93542"
           clip-path="url(#p7efea73b7e)"
           style="fill:none;stroke:#ff7f0e;stroke-width:1.5;stroke-linecap:square"
           id="path328" />
      </g>
      <g
         id="line2d_23">
        <path
           d="m 102.31634,81.675663 0.15973,-2.895747 0.1599,-2.820842 0.16007,-2.738044 0.16023,-2.648445 0.1604,-2.553151 0.16058,-2.453268 0.16074,-2.349875 0.16091,-2.244009 0.16109,-2.136659 0.16126,-2.028742 0.16142,-1.921103 0.1616,-1.814504 0.16178,-1.709623 0.16194,-1.60705 0.16212,-1.507289 0.1623,-1.410756 0.16247,-1.317791 0.16264,-1.228652 0.16282,-1.143532 0.163,-1.062553 0.16317,-0.985782 0.16335,-0.913237 0.16353,-0.844886 0.1637,-0.780663 0.16388,-0.720469 0.16407,-0.664178 0.16424,-0.611643 0.16442,-0.562706 0.1646,-0.517191 0.16479,-0.474917 0.16496,-0.435701 0.16515,-0.399356 0.16533,-0.365695 0.16551,-0.334538 0.16569,-0.305704 0.16588,-0.279022 0.16607,-0.254325 0.16624,-0.231454 0.16644,-0.210256 0.16662,-0.190587 0.1668,-0.172312 0.167,-0.1553 0.16718,-0.13943 0.16736,-0.124586 0.16756,-0.110661 0.16774,-0.09755 0.16794,-0.08516 0.16812,-0.0734 0.16832,-0.06218 0.1685,-0.05142 0.1687,-0.04104 0.16889,-0.03096 0.16908,-0.02111 0.16928,-0.01142 0.16946,-0.0018 0.16967,0.0078 0.16985,0.0174 0.17005,0.02715 0.17025,0.0371 0.17045,0.04732 0.17064,0.05787 0.17083,0.06884 0.17104,0.0803 0.17123,0.09233 0.17143,0.105037 0.17164,0.118495 0.17183,0.132807 0.17203,0.148073 0.17223,0.164402 0.17244,0.181908 0.17264,0.200712 0.17284,0.220942 0.17304,0.242729 0.17324,0.266218 0.17345,0.291553 0.17366,0.318891 0.17386,0.34839 0.17407,0.380214 0.17427,0.414531 0.17448,0.451513 0.17469,0.491331 0.1749,0.534155 0.1751,0.580151 0.17532,0.62948 0.17552,0.68229 0.17574,0.738717 0.17594,0.798882 0.17616,0.862875 0.17637,0.930766 0.17658,1.002589 0.1768,1.078338 0.17701,1.157963 0.17722,1.241364 0.17744,1.328384 0.17766,1.418806 0.17787,1.512343 0.17809,1.60864 0.1783,1.707267 0.17853,1.807717 0.17874,1.909408 0.17897,2.011683 0.17918,2.11381 0.1794,2.214991 0.17962,2.314367 0.17985,2.411026 0.18007,2.504023 0.18029,2.592376 0.18051,2.675103 0.18074,2.751218 0.18096,2.819769"
           clip-path="url(#p7efea73b7e)"
           style="fill:none;stroke:#2ca02c;stroke-width:1.5;stroke-linecap:square"
           id="path331" />
      </g>
      <g
         id="line2d_24">
        <path
           d="m 102.31634,81.675663 h 18.6813"
           clip-path="url(#p7efea73b7e)"
           style="fill:none;stroke:#2ca02c;stroke-width:1.5;stroke-linecap:square"
           id="path334" />
      </g>
      <g
         id="line2d_25">
        <path
           d="m 125.36178,108.778 0.20495,-2.95887 0.20523,-2.97606 0.20553,-2.980702 0.20582,-2.973064 0.20612,-2.953524 0.20641,-2.922625 0.2067,-2.88103 0.207,-2.829512 0.2073,-2.768933 0.2076,-2.700219 0.20789,-2.624343 0.20819,-2.542302 0.20849,-2.455097 0.2088,-2.363721 0.2091,-2.269135 0.2094,-2.17226 0.2097,-2.073962 0.21001,-1.975044 0.21032,-1.876243 0.21062,-1.778221 0.21093,-1.681561 0.21124,-1.586775 0.21155,-1.494293 0.21186,-1.404477 0.21217,-1.317617 0.21248,-1.233938 0.2128,-1.153605 0.21311,-1.076728 0.21343,-1.003368 0.21374,-0.93354 0.21407,-0.867227 0.21438,-0.804373 0.21469,-0.744898 0.21502,-0.688698 0.21534,-0.63565 0.21567,-0.58562 0.21598,-0.538456 0.21631,-0.494006 0.21664,-0.452106 0.21696,-0.412591 0.21729,-0.375297 0.21762,-0.340055 0.21795,-0.306701 0.21828,-0.275074 0.2186,-0.245011 0.21895,-0.216358 0.21927,-0.18896 0.21961,-0.162667 0.21994,-0.137333 0.22028,-0.112817 0.22062,-0.08898 0.22096,-0.06568 0.2213,-0.04278 0.22163,-0.02016 0.22198,0.0023 0.22232,0.0248 0.22267,0.04739 0.22301,0.07023 0.22336,0.09346 0.2237,0.117193 0.22405,0.141573 0.2244,0.166734 0.22475,0.192812 0.22511,0.219945 0.22545,0.248278 0.22581,0.277949 0.22616,0.309109 0.22652,0.341904 0.22688,0.376482 0.22723,0.412993 0.22759,0.451588 0.22795,0.492415 0.22832,0.535616 0.22868,0.581336 0.22903,0.629705 0.22941,0.680851 0.22977,0.734883 0.23014,0.791902 0.2305,0.851988 0.23088,0.915196 0.23124,0.98156 0.23162,1.05108 0.23199,1.123723 0.23236,1.199418 0.23274,1.278045 0.23312,1.359445 0.23349,1.443397 0.23387,1.529631 0.23425,1.617815 0.23463,1.707558 0.23501,1.798404 0.2354,1.889836 0.23578,1.981274 0.23617,2.07208 0.23656,2.161561 0.23694,2.248977 0.23733,2.333543 0.23772,2.414445 0.23812,2.490849 0.23851,2.561911 0.2389,2.626796 0.2393,2.684687 0.23969,2.734809 0.2401,2.776434 0.24049,2.808909 0.24089,2.831665 0.2413,2.844223 0.24169,2.84625 0.24211,2.83747 0.24251,2.8178"
           clip-path="url(#p7efea73b7e)"
           style="fill:none;stroke:#d62728;stroke-width:1.5;stroke-linecap:square"
           id="path337" />
      </g>
      <g
         id="line2d_26">
        <path
           d="m 126.56888,91.392494 h 21.8049"
           clip-path="url(#p7efea73b7e)"
           style="fill:none;stroke:#d62728;stroke-width:1.5;stroke-linecap:square"
           id="path340" />
      </g>
      <g
         id="line2d_27">
        <path
           d="m 183.16738,135.35591 0.32823,-1.63928 0.32894,-1.69856 0.32965,-1.75348 0.33037,-1.80364 0.33109,-1.8487 0.3318,-1.88834 0.33253,-1.92233 0.33325,-1.95051 0.33397,-1.97271 0.33471,-1.98891 0.33544,-1.9991 0.33618,-2.00331 0.33691,-2.00167 0.33766,-1.99432 0.3384,-1.98146 0.33914,-1.96332 0.33989,-1.94018 0.34065,-1.91233 0.3414,-1.880085 0.34215,-1.843785 0.34292,-1.80377 0.34368,-1.760397 0.34445,-1.714011 0.34521,-1.664963 0.34598,-1.613592 0.34676,-1.560228 0.34753,-1.505185 0.34832,-1.448759 0.3491,-1.391233 0.34988,-1.332864 0.35067,-1.273891 0.35146,-1.21453 0.35226,-1.154976 0.35306,-1.0954 0.35385,-1.035953 0.35466,-0.976765 0.35546,-0.917943 0.35627,-0.859578 0.35709,-0.80174 0.3579,-0.744482 0.35872,-0.687843 0.35954,-0.631845 0.36036,-0.576496 0.36119,-0.521794 0.36202,-0.467726 0.36285,-0.414264 0.36369,-0.36138 0.36453,-0.309033 0.36538,-0.257174 0.36622,-0.205756 0.36706,-0.15472 0.36793,-0.104009 0.36877,-0.05356 0.36964,-0.0033 0.37049,0.04679 0.37136,0.09682 0.37223,0.146827 0.3731,0.196879 0.37398,0.247027 0.37485,0.297322 0.37574,0.34781 0.37662,0.398532 0.37751,0.449522 0.37839,0.500808 0.3793,0.552405 0.38019,0.604326 0.38109,0.656569 0.382,0.709122 0.38291,0.761963 0.38382,0.815056 0.38473,0.868353 0.38565,0.921792 0.38657,0.975295 0.3875,1.028772 0.38843,1.082117 0.38936,1.135206 0.3903,1.187902 0.39123,1.240055 0.39218,1.291492 0.39313,1.342035 0.39407,1.391485 0.39503,1.439635 0.39599,1.486264 0.39695,1.531141 0.39791,1.574031 0.39888,1.614689 0.39985,1.652867 0.40083,1.68832 0.40181,1.720801 0.40279,1.75007 0.40378,1.7759 0.40477,1.79806 0.40576,1.81636 0.40677,1.83062 0.40776,1.84063 0.40877,1.84633 0.40978,1.84753 0.41079,1.84419 0.41181,1.83625 0.41283,1.82371 0.41386,1.80658 0.41488,1.78492 0.41592,1.75882 0.41696,1.72843 0.41799,1.6939 0.41905,1.65545 0.42009,1.61329 0.42114,1.5677 0.4222,1.51899 0.42326,1.46745"
           clip-path="url(#p7efea73b7e)"
           style="fill:none;stroke:#9467bd;stroke-width:1.5;stroke-linecap:square"
           id="path343" />
      </g>
      <g
         id="line2d_28">
        <path
           d="m 191.0444,91.392494 h 22.66124"
           clip-path="url(#p7efea73b7e)"
           style="fill:none;stroke:#9467bd;stroke-width:1.5;stroke-linecap:square"
           id="path346" />
      </g>
      <g
         id="line2d_29">
        <path
           d="m 67.231306,36.707503 0.09515,-0.662978 0.09519,-0.616022 0.09524,-0.571772 0.09528,-0.530162 0.09533,-0.491113 0.09538,-0.454536 0.09542,-0.420339 0.09547,-0.388419 0.09552,-0.358673 0.09556,-0.330994 0.09561,-0.305274 0.09566,-0.281405 0.0957,-0.259282 0.09575,-0.238799 0.0958,-0.219854 0.09585,-0.202347 0.09589,-0.186184 0.09594,-0.171272 0.09599,-0.157523 0.09604,-0.144856 0.09609,-0.133188 0.09613,-0.122447 0.09618,-0.112563 0.09623,-0.103468 0.09628,-0.0951 0.09633,-0.0874 0.09637,-0.08032 0.09642,-0.07381 0.09647,-0.06781 0.09652,-0.06229 0.09657,-0.05721 0.09662,-0.05253 0.09667,-0.04821 0.09672,-0.04422 0.09677,-0.04054 0.09682,-0.03713 0.09686,-0.03398 0.09691,-0.03105 0.09696,-0.02834 0.09701,-0.02581 0.09706,-0.02345 0.09711,-0.02124 0.09716,-0.01918 0.09721,-0.01724 0.09726,-0.0154 0.09731,-0.01367 0.09737,-0.01202 0.09742,-0.01045 0.09747,-0.0089 0.09752,-0.0075 0.09757,-0.0061 0.09762,-0.0047 0.09767,-0.0034 0.09772,-0.0021 0.09777,-7.66e-4 0.09783,5.33e-4 0.09788,0.0018 0.09793,0.0032 0.09798,0.0045 0.09803,0.0058 0.09809,0.0072 0.09814,0.0087 0.09819,0.01019 0.09824,0.01176 0.09829,0.0134 0.09835,0.01513 0.0984,0.01695 0.09845,0.01888 0.09851,0.02094 0.09856,0.02313 0.09861,0.02548 0.09866,0.028 0.09872,0.03071 0.09877,0.03362 0.09882,0.03676 0.09888,0.04015 0.09893,0.04382 0.09899,0.0478 0.09904,0.05211 0.0991,0.05678 0.09915,0.06185 0.0992,0.06736 0.09926,0.07335 0.09931,0.07986 0.09937,0.08694 0.09942,0.09464 0.09948,0.103011 0.09953,0.112115 0.09959,0.122013 0.09964,0.132775 0.0997,0.144468 0.09975,0.15717 0.09981,0.170961 0.09986,0.185924 0.09992,0.20215 0.09998,0.219729 0.100032,0.238759 0.100088,0.259341 0.100144,0.281577 0.100201,0.305572 0.100257,0.331434 0.100314,0.359271 0.100371,0.389192 0.100427,0.421302 0.100485,0.455705 0.100542,0.492501 0.100598,0.531786 0.100656,0.573642 0.100714,0.618149 0.100771,0.665367"
           clip-path="url(#p7efea73b7e)"
           style="fill:none;stroke:#8c564b;stroke-width:1.5;stroke-linecap:square"
           id="path349" />
      </g>
      <g
         id="line2d_30">
        <path
           d="M 67.231306,36.707503 H 77.995209"
           clip-path="url(#p7efea73b7e)"
           style="fill:none;stroke:#8c564b;stroke-width:1.5;stroke-linecap:square"
           id="path352" />
      </g>
      <g
         id="line2d_31">
        <path
           d="m 80.46984,50.22114 0.118944,-1.585147 0.119025,-1.492033 0.119108,-1.401359 0.119191,-1.313479 0.119273,-1.228681 0.119357,-1.147201 0.119439,-1.069213 0.119523,-0.994842 0.119606,-0.924166 0.11969,-0.857221 0.119773,-0.794002 0.119858,-0.734474 0.119942,-0.678574 0.120027,-0.626211 0.120111,-0.577278 0.120196,-0.53165 0.120281,-0.489194 0.120367,-0.449759 0.120452,-0.413199 0.120537,-0.379355 0.120624,-0.348074 0.120709,-0.319197 0.120796,-0.292575 0.120882,-0.268053 0.120969,-0.24549 0.121056,-0.224744 0.121143,-0.20568 0.12123,-0.188174 0.121317,-0.1721 0.121406,-0.157349 0.121493,-0.14381 0.121581,-0.131383 0.12167,-0.119976 0.121758,-0.109499 0.121846,-0.09987 0.121936,-0.09102 0.122025,-0.08287 0.122114,-0.07536 0.122203,-0.06843 0.122294,-0.06202 0.122383,-0.05609 0.122474,-0.05058 0.122563,-0.04545 0.122655,-0.04067 0.122745,-0.03618 0.122836,-0.03197 0.122928,-0.02799 0.123018,-0.02422 0.123111,-0.02063 0.123202,-0.01718 0.123294,-0.01387 0.123387,-0.01065 0.123479,-0.0075 0.123572,-0.0044 0.123664,-0.0014 0.123758,0.0017 0.123851,0.0047 0.123945,0.0078 0.124038,0.01098 0.124133,0.0142 0.124226,0.01753 0.124321,0.02099 0.124416,0.0246 0.124511,0.02839 0.124605,0.03239 0.124701,0.03663 0.124797,0.04114 0.124892,0.04596 0.124988,0.05112 0.125084,0.05667 0.125181,0.06264 0.125277,0.0691 0.125374,0.07608 0.125471,0.08365 0.125569,0.09185 0.125666,0.10077 0.125764,0.110464 0.125862,0.121013 0.125959,0.132497 0.126059,0.145003 0.126157,0.158624 0.126256,0.173462 0.126355,0.189622 0.126454,0.207218 0.126554,0.226367 0.126653,0.247198 0.126754,0.269843 0.126854,0.294436 0.126954,0.321123 0.127055,0.350049 0.127156,0.381361 0.127258,0.415214 0.127358,0.451756 0.12746,0.491136 0.127562,0.533498 0.127665,0.57898 0.127766,0.62771 0.127869,0.679802 0.127972,0.735356 0.128075,0.794447 0.128178,0.857129 0.128282,0.923429 0.128386,0.993335 0.128489,1.066801 0.128594,1.143739 0.128698,1.224016 0.128803,1.307441 0.128908,1.39378 0.129013,1.482733 0.129118,1.573948"
           clip-path="url(#p7efea73b7e)"
           style="fill:none;stroke:#e377c2;stroke-width:1.5;stroke-linecap:square"
           id="path355" />
      </g>
      <g
         id="line2d_32">
        <path
           d="M 80.46984,50.22114 H 94.090007"
           clip-path="url(#p7efea73b7e)"
           style="fill:none;stroke:#e377c2;stroke-width:1.5;stroke-linecap:square"
           id="path358" />
      </g>
      <g
         id="patch_3">
        <path
           d="M 32.4,160.2 V 21.6"
           style="fill:none;stroke:#000000;stroke-width:0.8;stroke-linecap:square;stroke-linejoin:miter"
           id="path361" />
      </g>
      <g
         id="patch_4">
        <path
           d="M 233.28,160.2 V 21.6"
           style="fill:none;stroke:#000000;stroke-width:0.8;stroke-linecap:square;stroke-linejoin:miter"
           id="path364" />
      </g>
      <g
         id="patch_5">
        <path
           d="M 32.4,160.2 H 233.28"
           style="fill:none;stroke:#000000;stroke-width:0.8;stroke-linecap:square;stroke-linejoin:miter"
           id="path367" />
      </g>
      <g
         id="patch_6">
        <path
           d="M 32.4,21.6 H 233.28"
           style="fill:none;stroke:#000000;stroke-width:0.8;stroke-linecap:square;stroke-linejoin:miter"
           id="path370" />
      </g>
      <g
         id="legend_1">
        <g
           id="patch_7">
          <path
             d="m 177.9768,141.88672 h 70.4 q 2,0 2,-2 V 41.913281 q 0,-2 -2,-2 h -70.4 q -2,0 -2,2 v 97.973439 q 0,2 2,2 z"
             style="opacity:0.8;fill:#ffffff;stroke:#cccccc;stroke-linejoin:miter"
             id="path373" />
        </g>
        <g
           id="line2d_33">
          <path
             d="m 179.9768,47.413281 h 10 10"
             style="fill:none;stroke:#1f77b4;stroke-width:1.5;stroke-linecap:square"
             id="path376" />
        </g>
        <g
           id="text_12">
          <!-- $\eta_i=$17.9 -->
          <g
             transform="matrix(0.1,0,0,-0.1,207.9768,50.913281)"
             id="g400">
            <defs
               id="defs384">
              <path
                 id="DejaVuSans-Oblique-3b7"
                 d="m 3703,2113 -669,-3444 h -575 l 666,3425 q 97,497 -50,744 -144,246 -531,246 -466,0 -794,-296 -325,-297 -425,-810 L 941,0 H 363 l 681,3500 h 578 l -106,-544 q 265,316 578,472 309,156 675,156 603,0 840,-371 235,-375 94,-1100 z"
                 transform="scale(0.015625)" />
              <path
                 id="DejaVuSans-Oblique-69"
                 d="m 1172,4863 h 575 L 1606,4134 H 1031 Z M 909,3500 h 575 L 800,0 H 225 Z"
                 transform="scale(0.015625)" />
              <path
                 id="DejaVuSans-3d"
                 d="M 678,2906 H 4684 V 2381 H 678 Z m 0,-1275 H 4684 V 1100 H 678 Z"
                 transform="scale(0.015625)" />
              <path
                 id="TimesNewRomanPSMT-37"
                 d="M 644,4238 H 2916 V 4119 L 1503,-88 H 1153 L 2419,3728 H 1253 q -353,0 -503,-84 -262,-144 -422,-444 l -90,34 z"
                 transform="scale(0.015625)" />
              <path
                 id="TimesNewRomanPSMT-39"
                 d="M 338,-88 V 28 q 406,6 756,189 350,183 676,639 327,457 455,1003 -491,-315 -887,-315 -447,0 -766,345 -319,345 -319,917 0,557 319,991 384,528 1003,528 522,0 894,-431 456,-535 456,-1319 0,-706 -347,-1317 Q 2231,647 1613,244 1109,-88 516,-88 Z m 1937,2179 q 56,406 56,650 0,303 -103,654 -103,352 -292,539 -189,188 -430,188 -278,0 -488,-250 -209,-250 -209,-744 0,-659 279,-1031 203,-269 500,-269 143,0 340,69 197,69 347,194 z"
                 transform="scale(0.015625)" />
            </defs>
            <use
               xlink:href="#DejaVuSans-Oblique-3b7"
               transform="translate(0,0.421875)"
               id="use386" />
            <use
               xlink:href="#DejaVuSans-Oblique-69"
               transform="matrix(0.7,0,0,0.7,63.378906,-15.984375)"
               id="use388" />
            <use
               xlink:href="#DejaVuSans-3d"
               transform="translate(105.04394,0.421875)"
               id="use390" />
            <use
               xlink:href="#TimesNewRomanPSMT-31"
               transform="translate(208.31543,0.421875)"
               id="use392" />
            <use
               xlink:href="#TimesNewRomanPSMT-37"
               transform="translate(258.31543,0.421875)"
               id="use394" />
            <use
               xlink:href="#TimesNewRomanPSMT-2e"
               transform="translate(308.31543,0.421875)"
               id="use396" />
            <use
               xlink:href="#TimesNewRomanPSMT-39"
               transform="translate(333.31543,0.421875)"
               id="use398" />
          </g>
        </g>
        <g
           id="line2d_34">
          <path
             d="m 179.9768,61.552344 h 10 10"
             style="fill:none;stroke:#ff7f0e;stroke-width:1.5;stroke-linecap:square"
             id="path403" />
        </g>
        <g
           id="text_13">
          <!-- $\eta_i=$36.0 -->
          <g
             transform="matrix(0.1,0,0,-0.1,207.9768,65.052344)"
             id="g423">
            <defs
               id="defs407">
              <path
                 id="TimesNewRomanPSMT-33"
                 d="m 325,3431 q 181,428 457,661 277,233 690,233 509,0 781,-331 206,-247 206,-528 0,-463 -581,-957 391,-153 591,-437 200,-284 200,-669 0,-550 -350,-953 Q 1863,-75 997,-75 569,-75 414,31 259,138 259,259 q 0,91 73,160 74,69 177,69 79,0 160,-25 53,-16 240,-115 188,-98 260,-117 115,-34 247,-34 318,0 554,247 236,247 236,584 0,247 -109,481 -81,175 -178,266 -135,125 -369,226 -234,102 -478,102 H 972 v 94 q 247,31 495,178 249,147 361,353 113,206 113,453 0,322 -202,520 -201,199 -501,199 -485,0 -810,-519 z"
                 transform="scale(0.015625)" />
            </defs>
            <use
               xlink:href="#DejaVuSans-Oblique-3b7"
               transform="translate(0,0.421875)"
               id="use409" />
            <use
               xlink:href="#DejaVuSans-Oblique-69"
               transform="matrix(0.7,0,0,0.7,63.378906,-15.984375)"
               id="use411" />
            <use
               xlink:href="#DejaVuSans-3d"
               transform="translate(105.04394,0.421875)"
               id="use413" />
            <use
               xlink:href="#TimesNewRomanPSMT-33"
               transform="translate(208.31543,0.421875)"
               id="use415" />
            <use
               xlink:href="#TimesNewRomanPSMT-36"
               transform="translate(258.31543,0.421875)"
               id="use417" />
            <use
               xlink:href="#TimesNewRomanPSMT-2e"
               transform="translate(308.31543,0.421875)"
               id="use419" />
            <use
               xlink:href="#TimesNewRomanPSMT-30"
               transform="translate(333.31543,0.421875)"
               id="use421" />
          </g>
        </g>
        <g
           id="line2d_35">
          <path
             d="m 179.9768,75.691406 h 10 10"
             style="fill:none;stroke:#2ca02c;stroke-width:1.5;stroke-linecap:square"
             id="path426" />
        </g>
        <g
           id="text_14">
          <!-- $\eta_i=$38.5 -->
          <g
             transform="matrix(0.1,0,0,-0.1,207.9768,79.191406)"
             id="g446">
            <defs
               id="defs430">
              <path
                 id="TimesNewRomanPSMT-35"
                 d="M 2778,4238 2534,3706 H 1259 L 981,3138 q 828,-122 1313,-616 415,-425 415,-1000 0,-334 -136,-619 Q 2438,619 2231,419 2025,219 1772,97 1413,-75 1034,-75 653,-75 479,54 306,184 306,341 q 0,87 72,154 72,68 181,68 82,0 143,-25 61,-25 207,-129 235,-162 475,-162 366,0 642,276 277,277 277,674 0,384 -247,717 -247,333 -681,514 -341,141 -928,163 l 812,1647 z"
                 transform="scale(0.015625)" />
            </defs>
            <use
               xlink:href="#DejaVuSans-Oblique-3b7"
               transform="translate(0,0.421875)"
               id="use432" />
            <use
               xlink:href="#DejaVuSans-Oblique-69"
               transform="matrix(0.7,0,0,0.7,63.378906,-15.984375)"
               id="use434" />
            <use
               xlink:href="#DejaVuSans-3d"
               transform="translate(105.04394,0.421875)"
               id="use436" />
            <use
               xlink:href="#TimesNewRomanPSMT-33"
               transform="translate(208.31543,0.421875)"
               id="use438" />
            <use
               xlink:href="#TimesNewRomanPSMT-38"
               transform="translate(258.31543,0.421875)"
               id="use440" />
            <use
               xlink:href="#TimesNewRomanPSMT-2e"
               transform="translate(308.31543,0.421875)"
               id="use442" />
            <use
               xlink:href="#TimesNewRomanPSMT-35"
               transform="translate(333.31543,0.421875)"
               id="use444" />
          </g>
        </g>
        <g
           id="line2d_36">
          <path
             d="m 179.9768,89.830469 h 10 10"
             style="fill:none;stroke:#d62728;stroke-width:1.5;stroke-linecap:square"
             id="path449" />
        </g>
        <g
           id="text_15">
          <!-- $\eta_i=$45.3 -->
          <g
             transform="matrix(0.1,0,0,-0.1,207.9768,93.330469)"
             id="g466">
            <use
               xlink:href="#DejaVuSans-Oblique-3b7"
               transform="translate(0,0.421875)"
               id="use452" />
            <use
               xlink:href="#DejaVuSans-Oblique-69"
               transform="matrix(0.7,0,0,0.7,63.378906,-15.984375)"
               id="use454" />
            <use
               xlink:href="#DejaVuSans-3d"
               transform="translate(105.04394,0.421875)"
               id="use456" />
            <use
               xlink:href="#TimesNewRomanPSMT-34"
               transform="translate(208.31543,0.421875)"
               id="use458" />
            <use
               xlink:href="#TimesNewRomanPSMT-35"
               transform="translate(258.31543,0.421875)"
               id="use460" />
            <use
               xlink:href="#TimesNewRomanPSMT-2e"
               transform="translate(308.31543,0.421875)"
               id="use462" />
            <use
               xlink:href="#TimesNewRomanPSMT-33"
               transform="translate(333.31543,0.421875)"
               id="use464" />
          </g>
        </g>
        <g
           id="line2d_37">
          <path
             d="m 179.9768,103.96953 h 10 10"
             style="fill:none;stroke:#9467bd;stroke-width:1.5;stroke-linecap:square"
             id="path469" />
        </g>
        <g
           id="text_16">
          <!-- $\eta_i=$58.2 -->
          <g
             transform="matrix(0.1,0,0,-0.1,207.9768,107.46953)"
             id="g486">
            <use
               xlink:href="#DejaVuSans-Oblique-3b7"
               transform="translate(0,0.421875)"
               id="use472" />
            <use
               xlink:href="#DejaVuSans-Oblique-69"
               transform="matrix(0.7,0,0,0.7,63.378906,-15.984375)"
               id="use474" />
            <use
               xlink:href="#DejaVuSans-3d"
               transform="translate(105.04394,0.421875)"
               id="use476" />
            <use
               xlink:href="#TimesNewRomanPSMT-35"
               transform="translate(208.31543,0.421875)"
               id="use478" />
            <use
               xlink:href="#TimesNewRomanPSMT-38"
               transform="translate(258.31543,0.421875)"
               id="use480" />
            <use
               xlink:href="#TimesNewRomanPSMT-2e"
               transform="translate(308.31543,0.421875)"
               id="use482" />
            <use
               xlink:href="#TimesNewRomanPSMT-32"
               transform="translate(333.31543,0.421875)"
               id="use484" />
          </g>
        </g>
        <g
           id="line2d_38">
          <path
             d="m 179.9768,118.10859 h 10 10"
             style="fill:none;stroke:#8c564b;stroke-width:1.5;stroke-linecap:square"
             id="path489" />
        </g>
        <g
           id="text_17">
          <!-- $\eta_i=$25.6 -->
          <g
             transform="matrix(0.1,0,0,-0.1,207.9768,121.60859)"
             id="g506">
            <use
               xlink:href="#DejaVuSans-Oblique-3b7"
               transform="translate(0,0.421875)"
               id="use492" />
            <use
               xlink:href="#DejaVuSans-Oblique-69"
               transform="matrix(0.7,0,0,0.7,63.378906,-15.984375)"
               id="use494" />
            <use
               xlink:href="#DejaVuSans-3d"
               transform="translate(105.04394,0.421875)"
               id="use496" />
            <use
               xlink:href="#TimesNewRomanPSMT-32"
               transform="translate(208.31543,0.421875)"
               id="use498" />
            <use
               xlink:href="#TimesNewRomanPSMT-35"
               transform="translate(258.31543,0.421875)"
               id="use500" />
            <use
               xlink:href="#TimesNewRomanPSMT-2e"
               transform="translate(308.31543,0.421875)"
               id="use502" />
            <use
               xlink:href="#TimesNewRomanPSMT-36"
               transform="translate(333.31543,0.421875)"
               id="use504" />
          </g>
        </g>
        <g
           id="line2d_39">
          <path
             d="m 179.9768,132.24766 h 10 10"
             style="fill:none;stroke:#e377c2;stroke-width:1.5;stroke-linecap:square"
             id="path509" />
        </g>
        <g
           id="text_18">
          <!-- $\eta_i=$30.8 -->
          <g
             transform="matrix(0.1,0,0,-0.1,207.9768,135.74766)"
             id="g526">
            <use
               xlink:href="#DejaVuSans-Oblique-3b7"
               transform="translate(0,0.421875)"
               id="use512" />
            <use
               xlink:href="#DejaVuSans-Oblique-69"
               transform="matrix(0.7,0,0,0.7,63.378906,-15.984375)"
               id="use514" />
            <use
               xlink:href="#DejaVuSans-3d"
               transform="translate(105.04394,0.421875)"
               id="use516" />
            <use
               xlink:href="#TimesNewRomanPSMT-33"
               transform="translate(208.31543,0.421875)"
               id="use518" />
            <use
               xlink:href="#TimesNewRomanPSMT-30"
               transform="translate(258.31543,0.421875)"
               id="use520" />
            <use
               xlink:href="#TimesNewRomanPSMT-2e"
               transform="translate(308.31543,0.421875)"
               id="use522" />
            <use
               xlink:href="#TimesNewRomanPSMT-38"
               transform="translate(333.31543,0.421875)"
               id="use524" />
          </g>
        </g>
      </g>
    </g>
  </g>
  <defs
     id="defs535">
    <clipPath
       id="p7efea73b7e">
      <rect
         x="32.400002"
         y="21.6"
         width="200.88"
         height="138.60001"
         id="rect532" />
    </clipPath>
  </defs>
</svg>
